<svg xmlns="http://www.w3.org/2000/svg" xmlns:xlink="http://www.w3.org/1999/xlink"><symbol viewBox="0 0 18.568 18.567" id="alert" xmlns="http://www.w3.org/2000/svg"><g fill="currentColor"><path d="M9.284 0A9.311 9.311 0 000 9.222 9.148 9.148 0 002.682 15.8a9.181 9.181 0 006.54 2.764h.062A9.284 9.284 0 109.284 0zm0 17.309h-.062a8.067 8.067 0 01-5.673-2.393 7.933 7.933 0 01-2.29-5.673 8.036 8.036 0 118.025 8.066z"/><path d="M9.284 11.344a.7.7 0 00.7-.7V4.868a.7.7 0 00-1.4 0v5.776a.7.7 0 00.7.7M9.288 12.708a.96.96 0 00-.949.949v.041a.95.95 0 101.9 0v-.041a.96.96 0 00-.949-.949"/></g></symbol><symbol viewBox="0 0 21 15" id="arrow-left" xmlns="http://www.w3.org/2000/svg"><path d="M8.757 1.411L3.829 6.339h16.75v2H3.828l4.925 4.925L7.34 14.68 0 7.338l7.34-7.34z" fill="currentColor"/></symbol><symbol viewBox="0 0 21 15" id="arrow-right" xmlns="http://www.w3.org/2000/svg"><path d="M11.822 13.267l4.928-4.928H0v-2h16.751l-4.925-4.925 1.413-1.416 7.34 7.342-7.34 7.34z" fill="currentColor"/></symbol><symbol viewBox="0 0 13 10" id="caret-down" xmlns="http://www.w3.org/2000/svg"><path d="M6.5 10L0 0h13z" fill="#999"/></symbol><symbol viewBox="0 0 15.291 26.702" id="certification" xmlns="http://www.w3.org/2000/svg"><g fill="currentColor"><path d="M7.645 17.253a9.547 9.547 0 01-4.859-1.33v10.779l4.981-4.292 4.982 4.292V15.775a9.55 9.55 0 01-5.1 1.478M15.291 7.645A7.645 7.645 0 117.645 0a7.646 7.646 0 017.645 7.645"/></g></symbol><symbol viewBox="0 0 23.635 23.635" id="checkmark" xmlns="http://www.w3.org/2000/svg"><path d="M11.817 0a11.817 11.817 0 1011.818 11.817A11.831 11.831 0 0011.817 0zm5.689 8.368L11.6 16.64a1.183 1.183 0 01-.864.491h-.1a1.181 1.181 0 01-.835-.346l-3.546-3.541a1.182 1.182 0 111.671-1.671l2.559 2.559 5.1-7.137a1.181 1.181 0 111.922 1.373z" fill="currentColor"/></symbol><symbol viewBox="0 0 15.439 9.134" id="chevron-down" xmlns="http://www.w3.org/2000/svg"><path d="M7.719 9.133l-7.72-7.72L1.414-.001l6.305 6.306 6.306-6.306 1.414 1.414z" fill="currentColor"/></symbol><symbol viewBox="0 0 512 512" id="clock" xmlns="http://www.w3.org/2000/svg"><!--! Font Awesome Pro 6.1.1 by @fontawesome - https://fontawesome.com License - https://fontawesome.com/license (Commercial License) Copyright 2022 Fonticons, Inc.--><path d="M256 512C114.6 512 0 397.4 0 256S114.6 0 256 0s256 114.6 256 256-114.6 256-256 256zm-24-256c0 8 4 15.5 10.7 19.1l96 64c11 8.2 25.9 5.2 32.4-5.8 8.2-11 5.2-25.9-5.8-33.3L280 243.2V120c0-13.3-10.7-24-24.9-24-12.4 0-24 10.7-24 24l.9 136z" fill="#currentColor"/></symbol><symbol viewBox="0 0 20.506 20.506" id="cross" xmlns="http://www.w3.org/2000/svg"><path d="M10.254 11.667l-8.837 8.839L0 19.09l8.84-8.838L0 1.413 1.417 0l8.837 8.838L19.094 0l1.412 1.413-8.838 8.839 8.838 8.838-1.412 1.416z" fill="currentColor"/></symbol><symbol viewBox="0 0 24.429 16.614" id="education" xmlns="http://www.w3.org/2000/svg"><path d="M23.983 5.462l-11.517 4.1a.668.668 0 01-.458 0L.465 5.462a.683.683 0 010-1.295L11.981.041a.668.668 0 01.458 0l11.544 4.126a.693.693 0 010 1.295m-.836 4.693v-2.94l-1.375.485v2.508a1.23 1.23 0 00-.459.944 1.18 1.18 0 001.186 1.187 1.2 1.2 0 001.187-1.187 1.146 1.146 0 00-.539-.997zm-10.923.836a2.012 2.012 0 01-.7-.108L4.106 8.24v5.745a13.8 13.8 0 0016.209 0V8.213l-7.39 2.643a2.154 2.154 0 01-.7.135z" fill="currentColor"/></symbol><symbol viewBox="0 0 47.267 47.267" id="facebook" xmlns="http://www.w3.org/2000/svg"><path data-name="Path 41" d="M27.777 23.738h-3.286v8.795h-3.349v-8.795h-2.325v-3.167h2.325v-2.7c0-2.125 1.374-4.078 4.539-4.078a19.21 19.21 0 012.23.123l-.075 2.956s-.967-.009-2.021-.009c-1.142 0-1.324.526-1.324 1.4v2.312h3.436z" fill="#fff"/><g data-name="Ellipse 9032" fill="none" stroke="#fff"><circle cx="23.634" cy="23.634" r="23.634" stroke="none"/><circle cx="23.634" cy="23.634" r="23.134"/></g></symbol><symbol viewBox="0 0 47.267 47.267" id="instagram" xmlns="http://www.w3.org/2000/svg"><defs><clipPath id="a"><path data-name="Rectangle 6664" fill="#fff" d="M0 0h21.189v21.189H0z"/></clipPath></defs><g data-name="Group 10441"><g data-name="Group 10440" transform="translate(13.039 13.039)" clip-path="url(#a)" fill="#fff"><path data-name="Path 13048" d="M15.438 21.25H5.75a5.818 5.818 0 01-5.812-5.812V5.75A5.818 5.818 0 015.75-.062h9.688A5.818 5.818 0 0121.25 5.75v9.688a5.818 5.818 0 01-5.812 5.812M5.75 1.875A3.879 3.879 0 001.875 5.75v9.688a3.879 3.879 0 003.875 3.875h9.688a3.879 3.879 0 003.875-3.875V5.75a3.879 3.879 0 00-3.875-3.875z"/><path data-name="Path 13049" d="M10.625 15.396a4.846 4.846 0 01-4.776-4.132 4.844 4.844 0 115.5 4.08 5.031 5.031 0 01-.721.052m.011-7.75a2.86 2.86 0 00-.426.032 2.905 2.905 0 10.852 0 2.86 2.86 0 00-.426-.032"/><path data-name="Path 13050" d="M15.923 6.235a1.017 1.017 0 01-.688-.281 1.119 1.119 0 01-.2-.32.812.812 0 01-.077-.368.969.969 0 111.937 0 .964.964 0 01-.077.368 1.119 1.119 0 01-.2.32 1.019 1.019 0 01-.688.281"/></g></g><g data-name="Ellipse 9034" fill="none" stroke="#fff"><circle cx="23.634" cy="23.634" r="23.634" stroke="none"/><circle cx="23.634" cy="23.634" r="23.134"/></g></symbol><symbol viewBox="0 0 20 26.702" id="map-marker" xmlns="http://www.w3.org/2000/svg"><path d="M10.013 0a10.015 10.015 0 00-8.438 15.407l7.664 10.708a.944.944 0 00.774.587.912.912 0 00.774-.587l7.637-10.708A9.847 9.847 0 0020 10.093 10.063 10.063 0 0010.013 0m0 14.393a4.379 4.379 0 114.379-4.379 4.365 4.365 0 01-4.379 4.379" fill="currentColor"/></symbol><symbol viewBox="0 0 18 26" id="marker" xmlns="http://www.w3.org/2000/svg"><path d="M17.75 9.505a8.75 8.75 0 10-17.5 0c0 1.734.512 3.346 1.381 4.706h-.01C4.571 18.83 9 25.755 9 25.755l7.379-11.544h-.009a8.725 8.725 0 001.38-4.706zM9 13.255a3.75 3.75 0 110-7.5 3.75 3.75 0 010 7.5z" fill="currentColor"/></symbol><symbol viewBox="0 0 31 23" id="quote" xmlns="http://www.w3.org/2000/svg"><path d="M.43 22.828v-8.242c0-3.906.93-6.992 2.793-9.258 1.862-2.266 4.576-3.75 8.144-4.453v4.063c-2.656.833-4.44 2.265-5.351 4.296a6.966 6.966 0 00-.586 3.32h6.133v10.274H.43zm29.453-17.89c-2.63.807-4.401 2.265-5.313 4.375-.52 1.12-.729 2.2-.625 3.242h6.133v10.273H18.945v-8.242c0-3.958.957-7.057 2.871-9.297C23.73 3.05 26.42 1.58 29.883.875v4.063z" fill="currentColor"/></symbol><symbol viewBox="0 0 28.071 28.202" id="search" xmlns="http://www.w3.org/2000/svg"><path d="M27.412 23.722l-5.447-5.447a11.209 11.209 0 001.935-6.326A11.949 11.949 0 1011.949 23.9a11.209 11.209 0 006.326-1.933l5.447 5.447a2.548 2.548 0 003.69 0 2.912 2.912 0 000-3.692zM5.8 17.923a8.368 8.368 0 01-2.46-5.974 8.408 8.408 0 018.61-8.61 8.408 8.408 0 018.61 8.61 8.408 8.408 0 01-8.61 8.61 9.41 9.41 0 01-6.15-2.636z" fill="currentColor"/></symbol><symbol viewBox="0 0 22 24" id="telephone" xmlns="http://www.w3.org/2000/svg"><path d="M16.51 17.16a2.489 2.489 0 00-1.71-1.068 2.522 2.522 0 00-1.928.502l-.09.079c-.4.32-.95.381-1.412.155a8.9 8.9 0 01-5.135-8.954c.045-.499.367-.93.833-1.113l.115-.045A2.509 2.509 0 008.51 3.301l-.672-1.406a2.589 2.589 0 00-4.093-.815l-1.55 1.423A5 5 0 00.81 5.688a17.914 17.914 0 009.784 16.946c.304.155.623.277.952.364a5.012 5.012 0 002.54 0l1.963-.6a2.588 2.588 0 001.333-3.927l-.873-1.312zM12.854.63a.662.662 0 01.55-.185l.1.021a11.25 11.25 0 017.958 13.784.662.662 0 11-1.279-.343c1.42-5.297-1.724-10.743-7.022-12.162A.662.662 0 0112.855.63zm-.036 2.395a8.607 8.607 0 016.086 10.541.662.662 0 01-1.278-.343 7.282 7.282 0 00-5.15-8.92.662.662 0 01.342-1.278zm-.686 2.557a5.959 5.959 0 014.213 7.298.662.662 0 11-1.278-.343 4.634 4.634 0 00-3.277-5.676.662.662 0 01.342-1.279z" fill="currentColor"/></symbol><symbol viewBox="0 0 47.267 47.267" id="twitter" xmlns="http://www.w3.org/2000/svg"><path data-name="Path 40" d="M33.006 20.513c.008.18.012.36.012.542a11.886 11.886 0 01-18.3 10.014 8.45 8.45 0 006.189-1.731 4.181 4.181 0 01-3.9-2.9 4.248 4.248 0 00.786.075 4.2 4.2 0 001.1-.147 4.183 4.183 0 01-3.353-4.1v-.053a4.159 4.159 0 001.893.523 4.183 4.183 0 01-1.293-5.581 11.864 11.864 0 008.615 4.368 4.183 4.183 0 017.123-3.813 8.344 8.344 0 002.655-1.014 4.191 4.191 0 01-1.838 2.313 8.321 8.321 0 002.4-.659 8.488 8.488 0 01-2.089 2.163z" fill="#fff"/><g data-name="Ellipse 9031" fill="none" stroke="#fff"><circle cx="23.634" cy="23.634" r="23.634" stroke="none"/><circle cx="23.634" cy="23.634" r="23.134"/></g></symbol><symbol viewBox="0 0 47.267 47.267" id="youtube" xmlns="http://www.w3.org/2000/svg"><path data-name="Path 42" d="M35.173 17.278a3.05 3.05 0 00-2.146-2.16c-1.893-.51-9.482-.51-9.482-.51s-7.59 0-9.482.51a3.051 3.051 0 00-2.146 2.16 34.336 34.336 0 000 11.76 3.05 3.05 0 002.146 2.159c1.892.511 9.482.511 9.482.511s7.59 0 9.482-.511a3.049 3.049 0 002.146-2.159 34.344 34.344 0 000-11.76zm-14.11 9.488v-7.214l6.344 3.609z" fill="#fff"/><g data-name="Ellipse 9033" fill="none" stroke="#fff"><circle cx="23.634" cy="23.634" r="23.634" stroke="none"/><circle cx="23.634" cy="23.634" r="23.134"/></g></symbol></svg>