<svg xmlns="http://www.w3.org/2000/svg" xmlns:xlink="http://www.w3.org/1999/xlink"><symbol viewBox="0 0 18.568 18.567" id="alert" xmlns="http://www.w3.org/2000/svg"><g fill="currentColor"><path d="M9.284 0A9.311 9.311 0 000 9.222 9.148 9.148 0 002.682 15.8a9.181 9.181 0 006.54 2.764h.062A9.284 9.284 0 109.284 0zm0 17.309h-.062a8.067 8.067 0 01-5.673-2.393 7.933 7.933 0 01-2.29-5.673 8.036 8.036 0 118.025 8.066z"/><path d="M9.284 11.344a.7.7 0 00.7-.7V4.868a.7.7 0 00-1.4 0v5.776a.7.7 0 00.7.7M9.288 12.708a.96.96 0 00-.949.949v.041a.95.95 0 101.9 0v-.041a.96.96 0 00-.949-.949"/></g></symbol><symbol viewBox="0 0 20 16" id="arrow-left" xmlns="http://www.w3.org/2000/svg"><path d="M6.214 15.035L.516 9.07A1.73 1.73 0 010 7.796a1.74 1.74 0 01.516-1.273L6.214.535a1.675 1.675 0 012.455 0 1.88 1.88 0 010 2.568l-2.74 2.864h12.326A1.78 1.78 0 0120 7.785a1.78 1.78 0 01-1.74 1.817H5.93l2.74 2.864a1.88 1.88 0 010 2.568 1.686 1.686 0 01-2.461 0" fill="currentColor"/></symbol><symbol viewBox="0 0 20 16" id="arrow-right" xmlns="http://www.w3.org/2000/svg"><path d="M13.786.532l5.698 5.966c.34.335.527.796.516 1.273a1.74 1.74 0 01-.516 1.273l-5.698 5.988a1.675 1.675 0 01-2.455 0 1.88 1.88 0 010-2.568l2.74-2.864H1.745A1.78 1.78 0 010 7.783a1.78 1.78 0 011.74-1.818h12.33L11.33 3.1a1.88 1.88 0 010-2.568 1.686 1.686 0 012.461 0" fill="currentColor"/></symbol><symbol viewBox="0 0 23.635 23.635" id="checkmark" xmlns="http://www.w3.org/2000/svg"><path d="M11.817 0a11.817 11.817 0 1011.818 11.817A11.831 11.831 0 0011.817 0zm5.689 8.368L11.6 16.64a1.183 1.183 0 01-.864.491h-.1a1.181 1.181 0 01-.835-.346l-3.546-3.541a1.182 1.182 0 111.671-1.671l2.559 2.559 5.1-7.137a1.181 1.181 0 111.922 1.373z" fill="currentColor"/></symbol><symbol viewBox="0 0 15.439 9.134" id="chevron-down" xmlns="http://www.w3.org/2000/svg"><path d="M7.719 9.133l-7.72-7.72L1.414-.001l6.305 6.306 6.306-6.306 1.414 1.414z" fill="currentColor"/></symbol><symbol viewBox="0 0 512 512" id="clock" xmlns="http://www.w3.org/2000/svg"><!--! Font Awesome Pro 6.1.1 by @fontawesome - https://fontawesome.com License - https://fontawesome.com/license (Commercial License) Copyright 2022 Fonticons, Inc.--><path d="M256 512C114.6 512 0 397.4 0 256S114.6 0 256 0s256 114.6 256 256-114.6 256-256 256zm-24-256c0 8 4 15.5 10.7 19.1l96 64c11 8.2 25.9 5.2 32.4-5.8 8.2-11 5.2-25.9-5.8-33.3L280 243.2V120c0-13.3-10.7-24-24.9-24-12.4 0-24 10.7-24 24l.9 136z" fill="#currentColor"/></symbol><symbol viewBox="0 0 20.506 20.506" id="cross" xmlns="http://www.w3.org/2000/svg"><path d="M10.254 11.667l-8.837 8.839L0 19.09l8.84-8.838L0 1.413 1.417 0l8.837 8.838L19.094 0l1.412 1.413-8.838 8.839 8.838 8.838-1.412 1.416z" fill="currentColor"/></symbol><symbol viewBox="0 0 446.558 446.604" id="link" xmlns="http://www.w3.org/2000/svg"><path d="M215.673 0c14.609 0 26.797 12.188 26.797 26.797s-12.188 26.797-26.797 26.797h-91.664c-9.103 0-18.482-.505-27.62.24l-.539.046-.178.034a77.564 77.564 0 00-11.526 3.094l-.732.263-.335.162a78.042 78.042 0 00-9.738 5.636l-.823.567-.206.176a78.64 78.64 0 00-8.494 8.494l-.18.211-.563.818a78.034 78.034 0 00-5.637 9.738l-.166.347-.258.72a77.542 77.542 0 00-2.887 10.46l-.211 1.085-.028.331c-.357 4.713-.3 9.438-.29 14.169L53.6 332.82c0 5.826-.165 11.697.27 17.515l.042.511.007.038a77.564 77.564 0 003.095 11.526l.259.721.166.346a78.213 78.213 0 005.637 9.738l.569.826.172.203a78.64 78.64 0 008.494 8.494l.212.179.818.564a78.034 78.034 0 009.738 5.636l.307.146.76.274a77.68 77.68 0 0010.458 2.886l1.107.214.31.027c3.299.25 6.604.297 9.912.3l5.439-.012h221.454c5.826 0 11.697.164 17.514-.27l.512-.043.037-.006a77.564 77.564 0 0011.526-3.095l.759-.275.308-.146a78.213 78.213 0 009.738-5.638l.828-.571.201-.17a78.64 78.64 0 008.494-8.494l.179-.212.564-.817a78.034 78.034 0 005.637-9.738l.143-.303.277-.764a77.732 77.732 0 003.093-11.526l.028-.3c.25-3.31.293-6.62.297-9.939l-.003-4.013V230.878c-.005-14.614 12.183-26.805 26.788-26.805 14.609 0 26.797 12.188 26.797 26.797v113.137c0 6.739-.875 13.52-2.043 20.141-1.45 8.203-4.379 15.672-7.695 23.301-2.395 5.515-5.38 10.781-9.012 15.574l-1.17 1.54c-4.495 5.89-9.086 11.582-14.807 16.358-12.48 10.426-26.589 18.711-42.566 22.52-10.796 2.575-21.544 3.07-32.492 3.1l-222.523.002c-6.707 0-13.582.308-20.254-.461l-1.914-.225c-7.653-.916-15.239-2.08-22.508-4.748-7.551-2.766-15.172-5.989-21.922-10.434-13.457-8.859-25.047-20.285-33.293-34.211C4.375 379.636 0 360.707 0 341.269V103.074c0-26.152 9.832-51.254 27.512-70.5C46.634 11.758 74.618 0 102.782 0h112.891zm138.399 392.311c-.827.104-1.656.193-2.486.268l-.734.06-.944.171c-.983.172-1.97.324-2.961.458l7.125-.957zm-261.583 0l7.125.957a79.187 79.187 0 01-2.961-.46l-.942-.171-.868-.071a68.943 68.943 0 01-2.354-.255zm273.657-4.199a77.13 77.13 0 01-2.793 1.088l-.179.063-.617.296a77.89 77.89 0 01-2.813 1.256l6.402-2.703zm-285.731 0l6.402 2.703a77.89 77.89 0 01-2.813-1.256l-.618-.296-.179-.064a77.845 77.845 0 01-2.792-1.087zm296.14-7.027a81.79 81.79 0 01-1.653 1.22l-.854.603-.564.479a79.286 79.286 0 01-2.35 1.89l5.422-4.192zm-306.55 0l5.422 4.191a79.322 79.322 0 01-2.35-1.89l-.554-.469-.027-.018a78.821 78.821 0 01-2.49-1.814zm315.277-9.957a79.321 79.321 0 01-1.89 2.35l-.47.554-.018.027a78.82 78.82 0 01-1.814 2.491l4.192-5.422zm-324.003 0l4.192 5.422a79.496 79.496 0 01-1.22-1.653l-.606-.856-.476-.563a79.287 79.287 0 01-1.89-2.35zm329.542-11.39a79.73 79.73 0 01-1.256 2.814l-.299.622-.061.174a77.845 77.845 0 01-1.087 2.792l2.703-6.402zm-335.08 0l2.698 6.402a78.086 78.086 0 01-1.087-2.792l-.079-.217-.277-.58a78.42 78.42 0 01-1.256-2.813zm337.533-12.797a79.187 79.187 0 01-.46 2.962l-.173.951-.073.89c-.07.775-.154 1.548-.251 2.322l.957-7.125zm-339.99 0l.956 7.125a71.746 71.746 0 01-.267-2.485l-.061-.735-.17-.943a78.543 78.543 0 01-.459-2.962zM419.76.001c3.589 0 7.032.736 10.184 2.063a26.196 26.196 0 018.766 5.783 26.166 26.166 0 015.542 8.186l.22.53a26.208 26.208 0 012.085 10.235v109.73c0 14.61-12.192 26.797-26.797 26.797-14.61 0-26.797-12.188-26.797-26.797l-.001-45.036-150.335 150.336c-10.221 10.217-27.23 10.32-37.587.307l-.311-.307c-10.324-10.324-10.324-27.574 0-37.898L355.06 53.598h-45.033c-14.463 0-26.553-11.945-26.794-26.359l-.003-.438c0-14.609 12.188-26.797 26.797-26.797h109.404l.329-.003zM54.24 92.483l-.95 7.068.132-.933a80 80 0 01.318-1.97l.175-.964.07-.847c.072-.785.155-1.57.254-2.354zm4.198-12.074l-2.686 6.372.394-.913a78.6 78.6 0 01.85-1.87l.275-.578.08-.218c.344-.936.706-1.867 1.087-2.793zM65.471 70l-4.192 5.423a79.323 79.323 0 011.89-2.35l.469-.555.019-.026A78.821 78.821 0 0165.47 70zm9.956-8.725l-5.422 4.191a78.972 78.972 0 011.654-1.22l.859-.609.56-.473a79.287 79.287 0 012.35-1.89zm11.39-5.54l-6.402 2.7a77.13 77.13 0 012.793-1.088l.206-.075.59-.28a78.68 78.68 0 012.813-1.256zm12.797-2.456l-7.125.957a86.984 86.984 0 012.596-.286l.765-.069.803-.144c.983-.171 1.97-.324 2.961-.458z" fill="currentColor"/></symbol><symbol viewBox="0 0 20 26.702" id="map-marker" xmlns="http://www.w3.org/2000/svg"><path d="M10.013 0a10.015 10.015 0 00-8.438 15.407l7.664 10.708a.944.944 0 00.774.587.912.912 0 00.774-.587l7.637-10.708A9.847 9.847 0 0020 10.093 10.063 10.063 0 0010.013 0m0 14.393a4.379 4.379 0 114.379-4.379 4.365 4.365 0 01-4.379 4.379" fill="currentColor"/></symbol></svg>