<svg xmlns="http://www.w3.org/2000/svg" xmlns:xlink="http://www.w3.org/1999/xlink"><symbol viewBox="0 0 18.568 18.567" id="alert" xmlns="http://www.w3.org/2000/svg"><g fill="currentColor"><path d="M9.284 0A9.311 9.311 0 000 9.222 9.148 9.148 0 002.682 15.8a9.181 9.181 0 006.54 2.764h.062A9.284 9.284 0 109.284 0zm0 17.309h-.062a8.067 8.067 0 01-5.673-2.393 7.933 7.933 0 01-2.29-5.673 8.036 8.036 0 118.025 8.066z"/><path d="M9.284 11.344a.7.7 0 00.7-.7V4.868a.7.7 0 00-1.4 0v5.776a.7.7 0 00.7.7M9.288 12.708a.96.96 0 00-.949.949v.041a.95.95 0 101.9 0v-.041a.96.96 0 00-.949-.949"/></g></symbol><symbol viewBox="0 0 20 16" id="arrow-left" xmlns="http://www.w3.org/2000/svg"><path d="M6.214 15.035L.516 9.07A1.73 1.73 0 010 7.796a1.74 1.74 0 01.516-1.273L6.214.535a1.675 1.675 0 012.455 0 1.88 1.88 0 010 2.568l-2.74 2.864h12.326A1.78 1.78 0 0120 7.785a1.78 1.78 0 01-1.74 1.817H5.93l2.74 2.864a1.88 1.88 0 010 2.568 1.686 1.686 0 01-2.461 0" fill="currentColor"/></symbol><symbol viewBox="0 0 20 16" id="arrow-right" xmlns="http://www.w3.org/2000/svg"><path d="M13.786.532l5.698 5.966c.34.335.527.796.516 1.273a1.74 1.74 0 01-.516 1.273l-5.698 5.988a1.675 1.675 0 01-2.455 0 1.88 1.88 0 010-2.568l2.74-2.864H1.745A1.78 1.78 0 010 7.783a1.78 1.78 0 011.74-1.818h12.33L11.33 3.1a1.88 1.88 0 010-2.568 1.686 1.686 0 012.461 0" fill="currentColor"/></symbol><symbol viewBox="0 0 23.635 23.635" id="checkmark" xmlns="http://www.w3.org/2000/svg"><path d="M11.817 0a11.817 11.817 0 1011.818 11.817A11.831 11.831 0 0011.817 0zm5.689 8.368L11.6 16.64a1.183 1.183 0 01-.864.491h-.1a1.181 1.181 0 01-.835-.346l-3.546-3.541a1.182 1.182 0 111.671-1.671l2.559 2.559 5.1-7.137a1.181 1.181 0 111.922 1.373z" fill="currentColor"/></symbol><symbol viewBox="0 0 15.439 9.134" id="chevron-down" xmlns="http://www.w3.org/2000/svg"><path d="M7.719 9.133l-7.72-7.72L1.414-.001l6.305 6.306 6.306-6.306 1.414 1.414z" fill="currentColor"/></symbol><symbol viewBox="0 0 512 512" id="clock" xmlns="http://www.w3.org/2000/svg"><!--! Font Awesome Pro 6.1.1 by @fontawesome - https://fontawesome.com License - https://fontawesome.com/license (Commercial License) Copyright 2022 Fonticons, Inc.--><path d="M256 512C114.6 512 0 397.4 0 256S114.6 0 256 0s256 114.6 256 256-114.6 256-256 256zm-24-256c0 8 4 15.5 10.7 19.1l96 64c11 8.2 25.9 5.2 32.4-5.8 8.2-11 5.2-25.9-5.8-33.3L280 243.2V120c0-13.3-10.7-24-24.9-24-12.4 0-24 10.7-24 24l.9 136z" fill="#currentColor"/></symbol><symbol viewBox="0 0 20.506 20.506" id="cross" xmlns="http://www.w3.org/2000/svg"><path d="M10.254 11.667l-8.837 8.839L0 19.09l8.84-8.838L0 1.413 1.417 0l8.837 8.838L19.094 0l1.412 1.413-8.838 8.839 8.838 8.838-1.412 1.416z" fill="currentColor"/></symbol><symbol viewBox="0 0 20 26.702" id="map-marker" xmlns="http://www.w3.org/2000/svg"><path d="M10.013 0a10.015 10.015 0 00-8.438 15.407l7.664 10.708a.944.944 0 00.774.587.912.912 0 00.774-.587l7.637-10.708A9.847 9.847 0 0020 10.093 10.063 10.063 0 0010.013 0m0 14.393a4.379 4.379 0 114.379-4.379 4.365 4.365 0 01-4.379 4.379" fill="currentColor"/></symbol></svg>