<svg xmlns="http://www.w3.org/2000/svg" xmlns:xlink="http://www.w3.org/1999/xlink"><symbol viewBox="0 0 18.568 18.567" id="alert" xmlns="http://www.w3.org/2000/svg"><g fill="currentColor"><path d="M9.284 0A9.311 9.311 0 000 9.222 9.148 9.148 0 002.682 15.8a9.181 9.181 0 006.54 2.764h.062A9.284 9.284 0 109.284 0zm0 17.309h-.062a8.067 8.067 0 01-5.673-2.393 7.933 7.933 0 01-2.29-5.673 8.036 8.036 0 118.025 8.066z"/><path d="M9.284 11.344a.7.7 0 00.7-.7V4.868a.7.7 0 00-1.4 0v5.776a.7.7 0 00.7.7M9.288 12.708a.96.96 0 00-.949.949v.041a.95.95 0 101.9 0v-.041a.96.96 0 00-.949-.949"/></g></symbol><symbol viewBox="0 0 21 15" id="arrow-left" xmlns="http://www.w3.org/2000/svg"><path d="M8.757 1.411L3.829 6.339h16.75v2H3.828l4.925 4.925L7.34 14.68 0 7.338l7.34-7.34z" fill="currentColor"/></symbol><symbol viewBox="0 0 21 15" id="arrow-right" xmlns="http://www.w3.org/2000/svg"><path d="M11.822 13.267l4.928-4.928H0v-2h16.751l-4.925-4.925 1.413-1.416 7.34 7.342-7.34 7.34z" fill="currentColor"/></symbol><symbol viewBox="0 0 23.635 23.635" id="checkmark" xmlns="http://www.w3.org/2000/svg"><path d="M11.817 0a11.817 11.817 0 1011.818 11.817A11.831 11.831 0 0011.817 0zm5.689 8.368L11.6 16.64a1.183 1.183 0 01-.864.491h-.1a1.181 1.181 0 01-.835-.346l-3.546-3.541a1.182 1.182 0 111.671-1.671l2.559 2.559 5.1-7.137a1.181 1.181 0 111.922 1.373z" fill="currentColor"/></symbol><symbol viewBox="0 0 15.439 9.134" id="chevron-down" xmlns="http://www.w3.org/2000/svg"><path d="M7.719 9.133l-7.72-7.72L1.414-.001l6.305 6.306 6.306-6.306 1.414 1.414z" fill="currentColor"/></symbol><symbol viewBox="0 0 512 512" id="clock" xmlns="http://www.w3.org/2000/svg"><!--! Font Awesome Pro 6.1.1 by @fontawesome - https://fontawesome.com License - https://fontawesome.com/license (Commercial License) Copyright 2022 Fonticons, Inc.--><path d="M256 512C114.6 512 0 397.4 0 256S114.6 0 256 0s256 114.6 256 256-114.6 256-256 256zm-24-256c0 8 4 15.5 10.7 19.1l96 64c11 8.2 25.9 5.2 32.4-5.8 8.2-11 5.2-25.9-5.8-33.3L280 243.2V120c0-13.3-10.7-24-24.9-24-12.4 0-24 10.7-24 24l.9 136z" fill="#currentColor"/></symbol><symbol viewBox="0 0 20.506 20.506" id="cross" xmlns="http://www.w3.org/2000/svg"><path d="M10.254 11.667l-8.837 8.839L0 19.09l8.84-8.838L0 1.413 1.417 0l8.837 8.838L19.094 0l1.412 1.413-8.838 8.839 8.838 8.838-1.412 1.416z" fill="currentColor"/></symbol></svg>