<?xml version="1.0" standalone="no"?>
<!DOCTYPE svg PUBLIC "-//W3C//DTD SVG 20010904//EN"
 "http://www.w3.org/TR/2001/REC-SVG-20010904/DTD/svg10.dtd">
<svg version="1.0" xmlns="http://www.w3.org/2000/svg"
 width="700.000000pt" height="700.000000pt" viewBox="0 0 700.000000 700.000000"
 preserveAspectRatio="xMidYMid meet">
<metadata>
Created by potrace 1.14, written by Peter Selinger 2001-2017
</metadata>
<g transform="translate(0.000000,700.000000) scale(0.100000,-0.100000)"
fill="#000000" stroke="none">
<path d="M3401 5574 c-103 -172 -334 -577 -398 -694 -22 -41 -62 -115 -88
-165 -26 -49 -51 -94 -56 -100 -18 -24 -299 -588 -299 -601 0 -11 -3 -12 -12
-4 -61 53 -361 228 -568 331 -109 54 -136 66 -255 118 -150 66 -527 201 -562
201 -7 0 -13 -12 -14 -27 0 -16 -2 -44 -4 -63 -14 -172 -17 -216 -20 -290 -6
-129 -5 -421 1 -550 l5 -115 -168 -1 c-154 0 -329 -8 -428 -19 -156 -17 -172
-19 -285 -36 -36 -6 -76 -12 -90 -14 -14 -3 -36 -7 -50 -10 -70 -15 -96 -19
-103 -17 -16 4 35 -238 79 -381 168 -533 522 -997 994 -1303 166 -107 411
-223 585 -277 91 -28 249 -66 304 -72 30 -4 63 -9 75 -11 27 -6 306 -16 416
-15 104 1 170 8 233 26 48 14 48 14 101 -20 148 -95 365 -168 562 -190 54 -6
254 -6 283 -1 13 3 49 8 80 12 63 7 217 50 301 84 52 20 115 53 205 105 39 23
41 23 95 8 84 -25 544 -24 695 2 332 57 634 175 920 362 264 172 497 402 674
663 52 77 77 119 141 234 55 100 167 380 185 466 2 8 15 62 28 120 24 102 40
190 35 190 -4 0 -99 16 -198 34 -47 8 -107 17 -135 21 -27 3 -69 8 -92 11
-122 18 -319 28 -523 29 l-185 0 6 55 c7 60 3 718 -5 790 -3 25 -8 79 -11 120
-4 41 -8 77 -11 82 -6 9 -318 -97 -492 -168 -130 -53 -466 -214 -562 -270
-112 -65 -220 -131 -273 -166 -32 -22 -62 -38 -67 -36 -5 2 -71 127 -148 278
-114 227 -313 600 -405 760 -11 19 -39 69 -62 110 -103 183 -324 555 -332 557
-5 2 -51 -67 -102 -153z m104 -2874 c3 -5 1 -10 -4 -10 -6 0 -11 5 -11 10 0 6
2 10 4 10 3 0 8 -4 11 -10z"/>
</g>
</svg>
