<?xml version="1.0" standalone="no"?>
<!DOCTYPE svg PUBLIC "-//W3C//DTD SVG 20010904//EN"
 "http://www.w3.org/TR/2001/REC-SVG-20010904/DTD/svg10.dtd">
<svg version="1.0" xmlns="http://www.w3.org/2000/svg"
 width="700.000000pt" height="700.000000pt" viewBox="0 0 700.000000 700.000000"
 preserveAspectRatio="xMidYMid meet">
<metadata>
Created by potrace 1.14, written by Peter Selinger 2001-2017
</metadata>
<g transform="translate(0.000000,700.000000) scale(0.100000,-0.100000)"
fill="#000000" stroke="none">
<path d="M0 3500 l0 -3500 3500 0 3500 0 0 3500 0 3500 -3500 0 -3500 0 0
-3500z m4686 2602 c37 -29 44 -57 44 -169 0 -119 -8 -141 -60 -168 -25 -13
-154 -15 -960 -15 l-930 0 0 -970 0 -970 710 0 c789 0 757 3 786 -65 9 -21 14
-69 14 -125 0 -56 -5 -104 -14 -125 -29 -68 3 -65 -786 -65 l-710 0 0 -565 0
-565 881 0 c804 0 883 -1 909 -17 43 -25 50 -53 50 -188 l0 -123 -31 -26 -31
-26 -1049 0 c-1135 0 -1111 -1 -1124 52 -3 13 -4 932 -3 2043 3 1902 4 2022
20 2052 10 18 26 37 35 42 12 7 391 10 1123 10 1032 1 1106 -1 1126 -17z m864
-4882 c18 -18 20 -33 20 -159 0 -122 -2 -142 -19 -162 l-19 -24 -2019 -2
c-1613 -2 -2023 0 -2043 10 -25 12 -25 14 -28 166 -2 133 0 156 14 172 17 18
81 19 2046 19 2015 0 2028 0 2048 -20z"/>
</g>
</svg>
