<?xml version="1.0" encoding="UTF-8"?>
<svg width="205px" height="60px" viewBox="0 0 205 60" version="1.1" xmlns="http://www.w3.org/2000/svg" xmlns:xlink="http://www.w3.org/1999/xlink">
    <title>Eastrail Logo</title>
    <g id="Page-1" stroke="none" stroke-width="1" fill="none" fill-rule="evenodd">
        <g id="Homepage" transform="translate(-240.000000, -40.000000)" fill="#00AE42">
            <g id="Header" transform="translate(0.000000, -34.000000)">
                <g id="Eastrail-Logo" transform="translate(240.000000, 74.000000)">
                    <path d="M58.4715994,39.7171816 L47.5959656,39.7171816 C47.1512014,39.7171816 46.7529789,40.0601358 46.5956098,40.578494 L44.1559516,48.6235193 C44.0442515,48.9923623 43.7609288,49.2367063 43.4444452,49.2367063 L41.3436688,49.2367063 C40.5955109,49.2367063 40.078607,48.3038359 40.3436039,47.4320515 L49.7956431,13.2873088 C50.3061475,11.6068622 51.5976799,10.495388 53.0396002,10.495388 L53.4887277,10.495388 C54.9038865,10.495388 56.1721481,11.5853366 56.6750894,13.2340767 L65.721634,47.4305971 C65.9875036,48.3026724 65.4705997,49.2367063 64.72186,49.2367063 L62.6155568,49.2367063 C62.3037273,49.2367063 62.0244771,48.9961438 61.9145223,48.6325367 L59.4719552,40.578494 C59.3145861,40.0601358 58.9163636,39.7171816 58.4715994,39.7171816 L58.4715994,39.7171816 Z M57.8781926,35.3451698 L54.2124513,18.1535353 C53.8889864,17.0519512 52.6387597,17.0519512 52.3152949,18.1535353 L48.1890815,35.3451698 L57.8781926,35.3451698 Z" id="Fill-1"></path>
                    <path d="M151.78022,39.7171816 L140.904587,39.7171816 C140.459822,39.7171816 140.0616,40.0601358 139.904231,40.578494 L137.464573,48.6235193 C137.352872,48.9923623 137.06955,49.2367063 136.752775,49.2367063 L134.65229,49.2367063 C133.904132,49.2367063 133.387228,48.3038359 133.652225,47.4320515 L143.104264,13.2873088 C143.614768,11.6068622 144.906301,10.495388 146.348221,10.495388 L146.797058,10.495388 C148.212508,10.495388 149.480769,11.5853366 149.98371,13.2340767 L159.030255,47.4305971 C159.296125,48.3026724 158.779221,49.2367063 158.030481,49.2367063 L155.924178,49.2367063 C155.612348,49.2367063 155.333098,48.9961438 155.223143,48.6325367 L152.780576,40.578494 C152.623207,40.0601358 152.224985,39.7171816 151.78022,39.7171816 L151.78022,39.7171816 Z M151.186814,35.3451698 L147.521072,18.1535353 C147.197607,17.0519512 145.947381,17.0519512 145.623916,18.1535353 L141.497702,35.3451698 L151.186814,35.3451698 Z" id="Fill-3"></path>
                    <path d="M162.388385,48.3942723 L162.388385,11.3377638 C162.388385,10.8723468 162.765663,10.4953589 163.23079,10.4953589 L166.194915,10.4953589 C166.660041,10.4953589 167.03732,10.8723468 167.03732,11.3377638 L167.03732,48.3942723 C167.03732,48.8593985 166.660041,49.2366772 166.194915,49.2366772 L163.23079,49.2366772 C162.765663,49.2366772 162.388385,48.8593985 162.388385,48.3942723" id="Fill-5"></path>
                    <path d="M15.6648047,4.38254182 L15.6648047,26.2414371 L32.0870466,26.2414371 C32.7953532,26.2414371 33.3698524,26.8159363 33.3698524,27.5245338 L33.3698524,29.386493 C33.3698524,30.0950905 32.7953532,30.6692989 32.0870466,30.6692989 L15.6648047,30.6692989 L15.6648047,44.8092517 L36.0215663,44.8092517 C36.7301638,44.8092517 37.304663,45.38346 37.304663,46.0920576 L37.304663,48.1829438 C37.304663,48.7647152 36.8328464,49.2365318 36.2510751,49.2365318 L12.0866199,49.2365318 C11.9528125,49.2414768 11.8297679,49.2161698 11.7166134,49.1862085 C11.3018104,49.0768355 11.0158698,48.6972297 11.0158698,48.2678824 L11.0158698,2.50981982 C11.0158698,0.584738392 11.590369,0.0102391759 12.2989665,0.0102391759 L36.0215663,0.0102391759 C36.7301638,0.0102391759 37.304663,0.584738392 37.304663,1.29333591 L37.304663,3.09973597 C37.304663,3.8080426 36.7301638,4.38254182 36.0215663,4.38254182 L15.6648047,4.38254182 Z" id="Fill-7"></path>
                    <path d="M90.0411603,39.4406365 C90.0411603,46.192384 84.9494974,50.0666904 78.6954553,50.0666904 C72.5720209,50.0666904 67.5434801,45.6874065 67.2525945,39.3074109 C67.2380502,38.9868549 67.5039197,38.7209854 67.8247666,38.7209854 L71.3386656,38.7209854 C71.6324601,38.7209854 71.8855307,38.9438038 71.90502,39.2370166 C72.1508184,42.9565717 75.0436765,45.6391195 78.6954553,45.6391195 C82.4586433,45.6391195 85.4477846,43.5915752 85.4477846,39.4959048 C85.4477846,35.4002345 82.9569305,33.4632267 77.8652676,31.8031421 C71.0024017,29.4783838 67.515846,26.3789969 67.515846,20.5127054 C67.515846,13.760667 72.6627772,9.66499666 78.9720876,9.66499666 C85.041999,9.66499666 90.0690853,14.0439897 90.3596801,20.4242762 C90.3745153,20.7445413 90.1083549,21.0107017 89.7877989,21.0107017 L86.3291682,21.0107017 C86.0359554,21.0107017 85.7823031,20.7887559 85.7625229,20.4964158 C85.4733825,16.1724002 81.5560251,13.1832589 77.1921581,14.256918 C73.9592547,15.0521994 71.7278706,18.1981281 72.2465198,21.4868815 C72.7613874,24.7517824 75.6731531,26.4662626 80.0789076,27.8182992 C86.5546046,29.8105752 90.0411603,33.1865944 90.0411603,39.4406365" id="Fill-9"></path>
                    <path d="M143.35716,4.37230264 L101.443733,4.37230264 C100.941374,4.37230264 100.534134,4.77954259 100.534134,5.28190216 L100.534134,59.0026694 C100.534134,59.5050289 100.126603,59.9125598 99.6242436,59.9125598 L96.5609265,59.9125598 C96.1877202,59.9125598 95.8851991,59.6100387 95.8851991,59.2368323 L95.8851991,5.28190216 C95.8851991,4.77954259 95.4779591,4.37230264 94.9755995,4.37230264 L63.0087178,4.37230264 C62.5063583,4.37230264 62.0988274,3.96506269 62.0988274,3.46270312 L62.0988274,0.909599518 C62.0988274,0.407239951 62.5063583,0 63.0087178,0 L143.35716,0 C143.85952,0 144.26676,0.407239951 144.26676,0.909599518 L144.26676,3.46270312 C144.26676,3.96506269 143.85952,4.37230264 143.35716,4.37230264" id="Fill-11"></path>
                    <path d="M130.921477,49.2365899 L127.188541,49.2365899 C126.708289,49.2365899 126.251308,49.0291884 125.935115,48.6679084 L112.098265,32.8544903 L112.098265,59.6095732 C112.098265,59.7768325 111.962712,59.9123852 111.795453,59.9123852 L107.752433,59.9123852 C107.585174,59.9123852 107.449621,59.7768325 107.449621,59.6095732 L107.449621,10.7980836 C107.449621,10.6308244 107.585174,10.4952717 107.752433,10.4952717 L119.071667,10.4952717 C125.104346,10.4952717 129.75328,15.1442066 129.75328,21.0104981 C129.75328,27.043467 125.104346,31.2493831 119.680782,31.2493831 L116.526127,31.2493831 L131.424419,48.1210433 C131.807224,48.554463 131.499467,49.2365899 130.921477,49.2365899 L130.921477,49.2365899 Z M112.098265,26.7959233 C112.098265,26.9631826 112.233818,27.0990262 112.401077,27.0990262 L119.071667,27.0990262 C122.613782,27.0990262 125.159905,24.4420764 125.159905,21.0104981 C125.159905,17.5795015 122.613782,14.8675743 119.071667,14.8675743 L112.401077,14.8675743 C112.233818,14.8675743 112.098265,15.003127 112.098265,15.1703863 L112.098265,26.7959233 Z" id="Fill-13"></path>
                    <path d="M193.053378,45.9232275 L193.053378,48.5065832 C193.053378,48.9097508 192.726423,49.2367063 192.323255,49.2367063 L172.903728,49.2367063 C172.46769,49.2367063 172.114555,48.8832802 172.114555,48.4472425 L172.114555,11.6094802 C172.114555,10.9939661 172.613424,10.495388 173.228647,10.495388 L175.649107,10.495388 C176.264621,10.495388 176.763199,10.9939661 176.763199,11.6094802 L176.763199,43.6950432 C176.763199,44.3102664 177.262068,44.8091354 177.877582,44.8091354 L191.939286,44.8091354 C192.55451,44.8091354 193.053378,45.3080043 193.053378,45.9232275" id="Fill-15"></path>
                    <path d="M203.757739,60 L116.867568,60 C116.391098,60 116.004802,59.6137038 116.004802,59.1372331 L116.004802,56.6100183 C116.004802,56.1338384 116.391098,55.7475423 116.867568,55.7475423 L203.757739,55.7475423 C204.23421,55.7475423 204.620215,56.1338384 204.620215,56.6100183 L204.620215,59.1372331 C204.620215,59.6137038 204.23421,60 203.757739,60" id="Fill-17"></path>
                    <path d="M89.323429,60 L1.03700745,60 C0.464253544,60 0,59.5357465 0,58.9629926 L0,56.7845497 C0,56.2117958 0.464253544,55.7475423 1.03700745,55.7475423 L89.323429,55.7475423 C89.8961829,55.7475423 90.3604364,56.2117958 90.3604364,56.7845497 L90.3604364,58.9629926 C90.3604364,59.5357465 89.8961829,60 89.323429,60" id="Fill-19"></path>
                </g>
            </g>
        </g>
    </g>
</svg>