<svg width="25.6006034px" height="32px" viewBox="0 0 25.6006034 32" version="1.1" xmlns="http://www.w3.org/2000/svg" xmlns:xlink="http://www.w3.org/1999/xlink">
    <title>map-marker-information-red</title>
    <g id="Page-1" stroke="none" stroke-width="1" fill="none" fill-rule="evenodd">
        <g id="map-marker-information-red" fill-rule="nonzero">
            <path d="M12.8000274,0.5 C14.997425,0.5 17.11128,1.08606664 18.9504197,2.14785354 C20.7895313,3.20962412 22.353935,4.74710023 23.4525033,6.64999877 C24.532286,8.51970232 25.1006034,10.6408533 25.1006034,12.7998903 C25.1006034,16.6244073 23.5879479,20.167672 21.6193882,23.1204589 C18.3131038,28.0797969 13.6786787,31.5 12.8003017,31.5 C11.9219247,31.5 7.28749961,28.0797969 3.98121527,23.1204589 C2.01265554,20.167672 0.5,16.6244073 0.5,12.7998903 C0.5,9.53776256 1.79606444,6.40928347 4.10280485,4.10263049 C6.40936072,1.79583185 9.53789467,0.5 12.8000274,0.5 Z" id="Path" stroke-opacity="0.2" stroke="#000000" fill="#E32C31"></path>
            <path d="M13,5 C17.4184631,5 21,8.58153688 21,13 C21,17.4184631 17.4184631,21 13,21 C8.58153688,21 5,17.4184631 5,13 C5,8.58153688 8.58153688,5 13,5 L13,5 Z M13,6.59993143 C9.46543522,6.59993143 6.59979428,9.46536665 6.59979428,13.0001371 C6.59979428,16.5349076 9.4652295,19.4003429 13,19.4003429 C16.5347705,19.4003429 19.4002057,16.5349076 19.4002057,13.0001371 C19.4002057,9.46536665 16.5347705,6.59993143 13,6.59993143 Z M13,11.4 C13.4102344,11.4 13.7483993,11.5801363 13.7946171,11.812223 L13.7999743,11.8667312 L13.7999743,16.5334265 C13.7999743,16.7912416 13.4418549,17.0001646 13.0000086,17.0001646 C12.5897741,17.0001646 12.2516093,16.8200283 12.2053915,16.5879415 L12.2000343,16.5334333 L12.2000343,11.8667381 C12.2000343,11.608923 12.5581537,11.4 13,11.4 L13,11.4 Z M13,8.99996571 C13.4418463,8.99996571 13.7999657,9.35822226 13.7999657,9.80006857 C13.7999657,10.2419149 13.4418463,10.6000343 13,10.6000343 C12.5581537,10.6000343 12.2000343,10.2419149 12.2000343,9.80006857 C12.2000343,9.35822226 12.5581537,8.99996571 13,8.99996571 Z" id="Shape" fill="#FFFFFF"></path>
        </g>
    </g>
</svg>
