<?xml version="1.0" encoding="UTF-8"?>
<svg width="25.6006034px" height="32px" viewBox="0 0 25.6006034 32" version="1.1" xmlns="http://www.w3.org/2000/svg" xmlns:xlink="http://www.w3.org/1999/xlink">
    <title>map-marker-toilets-red</title>
    <g id="Page-1" stroke="none" stroke-width="1" fill="none" fill-rule="evenodd">
        <g id="map-marker-toilets-red" fill-rule="nonzero">
            <path d="M12.8000274,0.5 C14.997425,0.5 17.11128,1.08606664 18.9504197,2.14785354 C20.7895313,3.20962412 22.353935,4.74710023 23.4525033,6.64999877 C24.532286,8.51970232 25.1006034,10.6408533 25.1006034,12.7998903 C25.1006034,16.6244073 23.5879479,20.167672 21.6193882,23.1204589 C18.3131038,28.0797969 13.6786787,31.5 12.8003017,31.5 C11.9219247,31.5 7.28749961,28.0797969 3.98121527,23.1204589 C2.01265554,20.167672 0.5,16.6244073 0.5,12.7998903 C0.5,9.53776256 1.79606444,6.40928347 4.10280485,4.10263049 C6.40936072,1.79583185 9.53789467,0.5 12.8000274,0.5 Z" id="Path" stroke-opacity="0.2" stroke="#000000" fill="#E32C31"></path>
            <path d="M11.3328481,12.2759192 L11.3328481,16.0151952 C11.3337753,16.1743829 11.2067196,16.3047998 11.0476662,16.3081591 L10.0375385,16.3081591 L9.72911359,19.8626054 L9.72924803,19.8626054 C9.71432431,20.0096913 9.59170641,20.1223618 9.44394581,20.1247815 L6.89962727,20.1247815 C6.75092703,20.1247815 6.62682946,20.0109029 6.61445929,19.8626054 L6.29527848,16.3081591 L5.29296388,16.3081591 C5.13122229,16.3081591 5,16.1770711 5,16.0151952 L5,12.2759192 C5.00147895,11.8449938 5.17330636,11.4319662 5.47811381,11.1271863 C5.78277669,10.8225234 6.19581801,10.6505525 6.62684667,10.6492102 L9.70304143,10.6492102 C10.1344831,10.6497479 10.5483367,10.821305 10.853805,11.1260849 C11.1591391,11.4310163 11.3315058,11.8444431 11.3328481,12.2758848 L11.3328481,12.2759192 Z M17.839739,9.79331384 L17.8398734,9.7934827 C18.298334,9.79546502 18.7387935,9.61503414 19.0641559,9.29210167 C19.3895184,8.9691692 19.5731779,8.53003143 19.5745277,8.07157085 C19.5758648,7.61311027 19.3948946,7.17292616 19.0714183,6.84794232 C18.7479351,6.52311336 18.3085564,6.34012495 17.8500959,6.33946913 C17.3916353,6.33879872 16.9516921,6.52043901 16.6272934,6.84432833 C16.3028671,7.16821765 16.1205403,7.60787859 16.1205403,8.06647684 C16.1197363,8.52331973 16.3003029,8.96192057 16.6227157,9.285803 C16.945125,9.60955465 17.3828929,9.79214036 17.8398734,9.7934827 L17.839739,9.79331384 Z M8.17179666,9.79331384 L8.17179666,9.79344828 C8.62987863,9.79344828 9.06909901,9.61140294 9.39298144,9.28752395 C9.71687076,8.96363463 9.89876809,8.52438672 9.89876809,8.06644242 C9.89876809,7.60836045 9.71685699,7.16914008 9.39298144,6.84525764 C9.06910589,6.52137521 8.62984421,6.33933331 8.17179666,6.33933331 C7.71385237,6.33933331 7.27449431,6.52137865 6.95061188,6.84525764 C6.62686023,7.16914696 6.44482523,7.60839487 6.44482523,8.06644242 C6.44549746,8.52424904 6.62767596,8.96309081 6.95130026,9.28683557 C7.2750519,9.61058721 7.71402446,9.7927599 8.17183108,9.79344828 L8.17179666,9.79331384 Z M13.0028422,6 C12.8411006,6 12.7098783,6.13122229 12.7098783,6.29296388 L12.7098783,20.1706895 C12.7098783,20.3324311 12.8411006,20.4636534 13.0028422,20.4636534 C13.1645838,20.4636534 13.2958061,20.3324311 13.2958061,20.1706895 L13.2958061,6.29296388 C13.2958061,6.13122229 13.1645838,6 13.0028422,6 L13.0028422,6 Z M20.4352729,12.1603059 C20.3944004,11.7453853 20.2002568,11.3607534 19.8909026,11.0812026 C19.5815347,10.801817 19.1791185,10.6477302 18.7622016,10.6491996 L16.9195824,10.6491996 C16.5026656,10.6477312 16.100239,10.8018101 15.7908814,11.0812026 C15.4815135,11.3607224 15.2873664,11.7453853 15.2465111,12.1603059 L14.6760512,17.3799415 C14.6694631,17.461955 14.6974285,17.5430289 14.7530912,17.6035305 C14.8071393,17.6665861 14.8859277,17.7031562 14.9690151,17.7038308 L16.0946184,17.7038308 L16.2796204,19.8548783 L16.2796204,19.8547438 C16.2911831,20.0047898 16.4146081,20.1214908 16.5649226,20.1247193 L19.1092411,20.1247193 L19.1091067,20.1247193 C19.2622435,20.1247193 19.3897004,20.0073437 19.4022048,19.8547438 L19.5872067,17.7036964 L20.71281,17.7038308 C20.7959008,17.7031586 20.8746859,17.6665895 20.9287339,17.6035305 C20.9822451,17.5420858 21.0073882,17.4608811 20.9981088,17.3799415 L20.4352729,12.1603059 Z" id="Shape" fill="#FFFFFF"></path>
        </g>
    </g>
</svg>