<?xml version="1.0" encoding="UTF-8"?>
<svg width="25.6006034px" height="32px" viewBox="0 0 25.6006034 32" version="1.1" xmlns="http://www.w3.org/2000/svg" xmlns:xlink="http://www.w3.org/1999/xlink">
    <title>map-marker-bicycle-blue</title>
    <g id="Page-1" stroke="none" stroke-width="1" fill="none" fill-rule="evenodd">
        <g id="map-marker-bicycle-blue" fill-rule="nonzero">
            <path d="M12.8000274,0.5 C14.997425,0.5 17.11128,1.08606664 18.9504197,2.14785354 C20.7895313,3.20962412 22.353935,4.74710023 23.4525033,6.64999877 C24.532286,8.51970232 25.1006034,10.6408533 25.1006034,12.7998903 C25.1006034,16.6244073 23.5879479,20.167672 21.6193882,23.1204589 C18.3131038,28.0797969 13.6786787,31.5 12.8003017,31.5 C11.9219247,31.5 7.28749961,28.0797969 3.98121527,23.1204589 C2.01265554,20.167672 0.5,16.6244073 0.5,12.7998903 C0.5,9.53776256 1.79606444,6.40928347 4.10280485,4.10263049 C6.40936072,1.79583185 9.53789467,0.5 12.8000274,0.5 Z" id="Path" stroke-opacity="0.2" stroke="#000000" fill="#3C77D4"></path>
            <path d="M8.09894737,12.9932691 C9.81684211,12.9932691 11.2147368,14.3911338 11.2147368,16.1090586 C11.2147368,17.8271037 9.80006015,19.1912814 8.09894737,19.1911639 C6.39789474,19.1911639 5,17.793239 5,16.0922165 C5,14.3911639 6.38102256,12.9932691 8.09894737,12.9932691 Z M17.9010526,12.9932691 C19.6021053,12.9932691 21,14.3911338 21,16.1090586 C21,17.8271037 19.6020752,19.1912814 17.9010526,19.1911639 C16.2,19.1911639 14.8021053,17.793239 14.8021053,16.0922165 C14.8021053,14.3911639 16.1831278,12.9932691 17.9010526,12.9932691 Z M8.09894737,13.9532691 C6.92,13.9532691 5.94315789,14.9301112 5.94315789,16.1090586 C5.94315789,17.288006 6.90309774,18.2648481 8.09894737,18.2648481 C9.29479699,18.2648481 10.2547368,17.288006 10.2547368,16.1090586 C10.2547368,14.9301112 9.27786466,13.9532691 8.09894737,13.9532691 Z M17.9010526,13.9532691 C16.705203,13.9532691 15.7452632,14.9301112 15.7452632,16.1090586 C15.7452632,17.288006 16.705203,18.2648481 17.9010526,18.2648481 C19.08,18.2648481 20.0568421,17.288006 20.0568421,16.1090586 C20.0568421,14.9301112 19.0969023,13.9532691 17.9010526,13.9532691 Z M12.0400692,8.95106761 L12.1463759,8.87452631 C12.9746625,8.28056329 13.284394,8.13052265 14.0443098,8.64796987 C14.1621414,8.73220145 14.2632932,8.83323604 14.3306105,8.91747062 C14.4485624,9.01849318 14.5326794,9.17005408 14.5158797,9.33852325 L14.5132875,9.38131693 C14.4813351,9.92606942 14.4666745,10.8320317 14.5158797,11.2585233 C14.7516692,11.3427578 15.3242707,11.4269927 15.8295639,11.4437924 C16.1158737,11.4437924 16.3516568,11.6964992 16.3348571,11.9827999 C16.3348571,12.2691097 16.0821504,12.5048929 15.7958496,12.4880932 L15.7095652,12.4849942 C15.2461304,12.4671736 14.8856113,12.4335749 14.6,12.3701413 C13.659256,12.1721076 13.5595422,11.8122819 13.5241955,11.6394063 L13.5221053,11.6290586 C13.488382,11.4607157 13.454782,11.2247999 13.454782,10.9888962 C13.1516842,11.3931669 12.7979549,11.89843 12.5116541,12.3362947 L12.5734554,12.3663401 C13.0812081,12.6142958 13.6618709,12.9261876 14.1958647,13.3468811 C14.7516842,13.7848661 14.5157744,14.5427308 13.7916241,15.9911518 L13.740966,16.0899684 C13.3348899,16.8784683 12.9151202,17.6092795 12.8989925,17.6416481 C12.7811579,17.8606436 12.5284481,17.9784778 12.2758647,17.9616781 C12.1748331,17.9616781 12.0905985,17.9279608 12.0063639,17.8774436 C11.7063879,17.6940903 11.587763,17.3128069 11.764947,16.994731 L11.8049931,16.9239016 C12.3679245,15.9246594 12.9696611,14.7172198 13.1347609,14.1889924 C12.7022127,13.8906732 12.2299327,13.6451519 11.7999636,13.4290988 L11.6358135,13.3468872 C11.1979789,13.12803 10.6253774,12.808006 10.3053474,12.5890225 C10.002117,12.370015 9.86736541,12.033203 9.98531729,11.6963909 C10.0190346,11.56163 10.0695519,11.4605954 10.1200692,11.3763608 C10.4905955,10.5005413 11.2652722,9.52366912 12.0400692,8.95106761 Z M15.3855639,6.0186225 C16.1287519,6.14197889 16.6313383,6.84439694 16.5079699,7.58770521 C16.3846135,8.33101348 15.6821955,8.83347964 14.9388872,8.71023152 C14.1955789,8.58687513 13.6931128,7.88433679 13.8163609,7.14102852 C13.9397173,6.39784055 14.6422556,5.89525408 15.3855639,6.0186225 Z" id="Shape" fill="#FFFFFF"></path>
        </g>
    </g>
</svg>