<?xml version="1.0" encoding="UTF-8"?>
<svg width="25.6006034px" height="32px" viewBox="0 0 25.6006034 32" version="1.1" xmlns="http://www.w3.org/2000/svg" xmlns:xlink="http://www.w3.org/1999/xlink">
    <title>map-marker-parking-blue</title>
    <g id="Page-1" stroke="none" stroke-width="1" fill="none" fill-rule="evenodd">
        <g id="map-marker-parking-blue" fill-rule="nonzero">
            <path d="M12.8000274,0.5 C14.997425,0.5 17.11128,1.08606664 18.9504197,2.14785354 C20.7895313,3.20962412 22.353935,4.74710023 23.4525033,6.64999877 C24.532286,8.51970232 25.1006034,10.6408533 25.1006034,12.7998903 C25.1006034,16.6244073 23.5879479,20.167672 21.6193882,23.1204589 C18.3131038,28.0797969 13.6786787,31.5 12.8003017,31.5 C11.9219247,31.5 7.28749961,28.0797969 3.98121527,23.1204589 C2.01265554,20.167672 0.5,16.6244073 0.5,12.7998903 C0.5,9.53776256 1.79606444,6.40928347 4.10280485,4.10263049 C6.40936072,1.79583185 9.53789467,0.5 12.8000274,0.5 Z" id="Path" stroke-opacity="0.2" stroke="#000000" fill="#3C77D4"></path>
            <path d="M13,5 C17.4184631,5 21,8.58153688 21,13 C21,17.4184631 17.4184631,21 13,21 C8.58153688,21 5,17.4184631 5,13 C5,8.58153688 8.58153688,5 13,5 L13,5 Z M13,6.59993143 C9.46543522,6.59993143 6.59979428,9.46536665 6.59979428,13.0001371 C6.59979428,16.5349076 9.4652295,19.4003429 13,19.4003429 C16.5347705,19.4003429 19.4002057,16.5349076 19.4002057,13.0001371 C19.4002057,9.46536665 16.5347705,6.59993143 13,6.59993143 Z M13.6475574,9.01747826 C13.8222244,9.03495652 14.0143745,9.06991244 14.2589587,9.10486956 C14.5035399,9.15730374 14.7305256,9.24457947 14.9751098,9.36693085 C15.219691,9.48916369 15.4293122,9.64635364 15.6039941,9.85598075 C15.7786611,10.0481278 15.9009087,10.2752172 16.0057771,10.5371659 L16.0162052,10.5900204 C16.063005,10.8299628 16.1071481,11.0982156 16.1102415,11.3948089 L16.1104144,11.4277487 C16.1104144,11.8819512 16.0404849,12.2661327 15.900775,12.6155853 C15.7610651,12.9649193 15.551441,13.2444695 15.2893737,13.4889352 C15.0273125,13.7335165 14.6954555,13.9081717 14.3111554,14.0304045 C13.9268554,14.1526373 13.4727715,14.2225516 12.9486667,14.2225516 L12.2849645,14.2225516 L12.2850803,16.7379405 C12.2850803,16.7728976 12.267602,16.8078547 12.2501232,16.8426963 C12.2151661,16.8776534 12.180209,16.8951304 12.1104133,16.9300876 L12.0659443,16.9411265 C12.0095568,16.9549253 11.9486252,16.9687241 11.865832,16.9825217 C11.7835239,16.9962547 11.690355,16.9991974 11.5694755,16.999828 L11.464049,17 C11.306859,17 11.1846262,17 11.0797489,16.9825217 L11.0396828,16.9756824 C10.9527901,16.9604838 10.8807626,16.945285 10.8351676,16.9300876 C10.7652534,16.9126093 10.7304119,16.8776534 10.7129348,16.8426963 L10.7049315,16.8265626 C10.6904921,16.7969858 10.6779777,16.7674218 10.6779777,16.7379405 L10.6780935,9.57642934 C10.6780935,9.38428228 10.7305276,9.24457829 10.8352834,9.13970992 C10.9400392,9.03495415 11.0623876,9 11.2370665,9 L13.1773581,9 C13.3419024,9.0002731 13.4947367,9.00218478 13.6475574,9.01747826 Z M12.9662504,10.2575048 L12.2850653,10.2575048 L12.2850653,12.9649104 L13.0186994,12.9649104 C13.2807607,12.9649104 13.4902663,12.9299533 13.6649482,12.8601547 C13.8396152,12.7902404 13.9793162,12.6854876 14.0841846,12.56324 C14.1889404,12.4410071 14.2763317,12.2838172 14.3287658,12.1090375 C14.3810845,11.9343705 14.4160416,11.7422205 14.4160416,11.5326023 C14.4160416,11.2531973 14.3635955,11.0260872 14.2763198,10.8514349 C14.171564,10.6767679 14.0492156,10.5370669 13.9095027,10.4496519 C13.7697928,10.3622606 13.6125881,10.309942 13.4553003,10.2924619 L13.3963204,10.2859417 C13.2585423,10.2708871 13.119097,10.2575048 12.9662504,10.2575048 Z" id="Shape" fill="#FFFFFF"></path>
        </g>
    </g>
</svg>