<svg width="25.6006034px" height="32px" viewBox="0 0 25.6006034 32" version="1.1" xmlns="http://www.w3.org/2000/svg" xmlns:xlink="http://www.w3.org/1999/xlink">
    <title>map-marker-trail-blue</title>
    <g id="Page-1" stroke="none" stroke-width="1" fill="none" fill-rule="evenodd">
        <g id="map-marker-trail-blue" fill-rule="nonzero">
            <path d="M12.8000274,0.5 C14.997425,0.5 17.11128,1.08606664 18.9504197,2.14785354 C20.7895313,3.20962412 22.353935,4.74710023 23.4525033,6.64999877 C24.532286,8.51970232 25.1006034,10.6408533 25.1006034,12.7998903 C25.1006034,16.6244073 23.5879479,20.167672 21.6193882,23.1204589 C18.3131038,28.0797969 13.6786787,31.5 12.8003017,31.5 C11.9219247,31.5 7.28749961,28.0797969 3.98121527,23.1204589 C2.01265554,20.167672 0.5,16.6244073 0.5,12.7998903 C0.5,9.53776256 1.79606444,6.40928347 4.10280485,4.10263049 C6.40936072,1.79583185 9.53789467,0.5 12.8000274,0.5 Z" id="Path" stroke-opacity="0.2" stroke="#000000" fill="#3C77D4"></path>
            <path d="M13.3270761,6.19830555 C13.3270761,6.87341518 12.8038802,7.39661109 12.1287706,7.39661109 C11.4536609,7.39661109 10.930465,6.87341518 10.930465,6.19830555 C10.930465,5.52319591 11.4367973,5 12.1119069,5 C12.7870165,5 13.3270761,5.52319591 13.3270761,6.19830555 M17.2089565,9.59073148 C17.2089565,9.59073148 15.7574708,8.76370811 15.0992389,8.42615329 C14.4578566,8.07173479 13.1751764,7.19405007 12.0274901,8.22364853 C11.5211578,8.67937566 10.913517,11.0759868 10.913517,11.0759868 L8.5,12.5949834 L8.90507985,13.151977 L11.5380074,12.1899739 L12.2806421,11.2279708 L13.0570041,12.9663781 L11.4873742,15.7512054 L10.2384073,20.4432174 L11.5211016,20.8820246 L12.9558502,16.4767935 L14.019176,15.4134677 L16.365182,21 L17.4959625,20.4768041 L15.5887778,13.6750745 C15.5887778,13.6750745 15.8250802,13.1856059 15.8250802,12.4092439 C15.8250802,11.5146955 15.1331069,10.0632379 15.1331069,10.0632379 L16.2638874,10.3332677 L16.5170536,13.2362391 L17.2428245,13.3037614 L17.2090367,9.59065835" id="Shape" fill="#FFFFFF" transform="translate(12.997981, 13.000000) scale(-1, 1) translate(-12.997981, -13.000000) "></path>
        </g>
    </g>
</svg>
