<svg fill="#fff" id="Layer_1" data-name="Layer 1" xmlns="http://www.w3.org/2000/svg" viewBox="0 0 50 50"><path d="M41.772,8.477H8.228A2.755,2.755,0,0,1,8.059,2.97c.056,0,.113,0,.169,0h6.99L17.2,1.013a2.842,2.842,0,0,1,1.954-.8H30.843a2.849,2.849,0,0,1,1.957.8L34.785,2.97h6.987a2.755,2.755,0,0,1,.169,5.507C41.885,8.479,41.828,8.479,41.772,8.477Z"/><path d="M36.216,11.23v3.6a1.956,1.956,0,0,1,1.956,1.91V44.247a1.968,1.968,0,0,1-1.991,1.938h-22.4a1.954,1.954,0,0,1-1.954-1.907V16.77a1.97,1.97,0,0,1,1.991-1.94H36.2l.013-3.6m0,0H13.784a5.557,5.557,0,0,0-5.556,5.51V44.278a5.554,5.554,0,0,0,5.554,5.507H36.218a5.554,5.554,0,0,0,5.554-5.507V16.74a5.557,5.557,0,0,0-5.556-5.51Z"/></svg>