<svg xmlns="http://www.w3.org/2000/svg" width="18.568" height="18.567" viewBox="0 0 18.568 18.567">
    <g fill="currentColor">
        <path d="M9.284 0A9.311 9.311 0 0 0 0 9.222 9.148 9.148 0 0 0 2.682 15.8a9.181 9.181 0 0 0 6.54 2.764h.062A9.284 9.284 0 1 0 9.284 0Zm0 17.309h-.062a8.067 8.067 0 0 1-5.673-2.393 7.933 7.933 0 0 1-2.29-5.673 8.036 8.036 0 1 1 8.025 8.066Z"/>
        <path d="M9.284 11.344a.7.7 0 0 0 .7-.7V4.868a.7.7 0 0 0-1.4 0v5.776a.7.7 0 0 0 .7.7"/>
        <path d="M9.288 12.708a.96.96 0 0 0-.949.949v.041a.95.95 0 1 0 1.9 0v-.041a.96.96 0 0 0-.949-.949"/>
    </g>
</svg>
