<svg width="513.336px" height="350.60665px" viewBox="0 0 513.336 350.60665"
    xmlns="http://www.w3.org/2000/svg">
    <g fill="currentColor" fill-rule="nonzero">
        <path d="M423.736 4.117A14.01 14.01 0 0 0 413.818 0c-3.719 0-7.289 1.484-9.914 4.117L356.42 51.72a306.508 306.508 0 0 0-99.75-16.684C97.19 35.035 0 156.245 0 175.035c0 12.715 44.918 72.45 123.43 109.67l-41.766 42a13.992 13.992 0 0 0-4.117 9.914c0 3.723 1.48 7.293 4.117 9.918 5.496 5.426 14.336 5.426 19.832 0l322-322a14.007 14.007 0 0 0 4.54-10.156A14.022 14.022 0 0 0 423.73 4.12l.006-.002Zm-260.4 170.92a93.329 93.329 0 0 1 93.332-93.332A91.11 91.11 0 0 1 309.52 98.62l-16.918 16.918a69.214 69.214 0 0 0-35.934-10.5 69.986 69.986 0 0 0-49.496 20.504 69.986 69.986 0 0 0-20.504 49.496 69.215 69.215 0 0 0 10.5 35.934L180.25 227.89a91.108 91.108 0 0 1-16.914-52.852ZM410.666 75.987l-66.734 66.734a92.633 92.633 0 0 1-50.293 118.293 92.634 92.634 0 0 1-69.289 1.29l-43.168 43.167a309.43 309.43 0 0 0 75.484 9.567c159.48 0 256.67-121.21 256.67-140 0-11.668-36.984-62.066-102.67-99.051Z"/>
        <path d="M256.666 245.038a69.986 69.986 0 0 0 49.496-20.505 69.986 69.986 0 0 0 20.504-49.496 66.204 66.204 0 0 0-1.398-13.648L243.6 243.64a66.153 66.153 0 0 0 13.066 1.399Z"/>
    </g>
</svg>
