<svg width="446.558" height="446.604"
    xmlns="http://www.w3.org/2000/svg">
    <path d="M215.673 0c14.609 0 26.797 12.188 26.797 26.797s-12.188 26.797-26.797 26.797h-91.664c-9.103 0-18.482-.505-27.62.24l-.539.046-.178.034a77.564 77.564 0 0 0-11.526 3.094l-.732.263-.335.162a78.042 78.042 0 0 0-9.738 5.636l-.823.567-.206.176a78.64 78.64 0 0 0-8.494 8.494l-.18.211-.563.818a78.034 78.034 0 0 0-5.637 9.738l-.166.347-.258.72A77.542 77.542 0 0 0 54.127 94.6l-.211 1.085-.028.331c-.357 4.713-.3 9.438-.29 14.169L53.6 332.82c0 5.826-.165 11.697.27 17.515l.042.511.007.038a77.564 77.564 0 0 0 3.095 11.526l.259.721.166.346a78.213 78.213 0 0 0 5.637 9.738l.569.826.172.203a78.64 78.64 0 0 0 8.494 8.494l.212.179.818.564a78.034 78.034 0 0 0 9.738 5.636l.307.146.76.274a77.68 77.68 0 0 0 10.458 2.886l1.107.214.31.027c3.299.25 6.604.297 9.912.3l5.439-.012h221.454c5.826 0 11.697.164 17.514-.27l.512-.043.037-.006a77.564 77.564 0 0 0 11.526-3.095l.759-.275.308-.146a78.213 78.213 0 0 0 9.738-5.638l.828-.571.201-.17a78.64 78.64 0 0 0 8.494-8.494l.179-.212.564-.817a78.034 78.034 0 0 0 5.637-9.738l.143-.303.277-.764a77.732 77.732 0 0 0 3.093-11.526l.028-.3c.25-3.31.293-6.62.297-9.939l-.003-4.013V230.878c-.005-14.614 12.183-26.805 26.788-26.805 14.609 0 26.797 12.188 26.797 26.797v113.137c0 6.739-.875 13.52-2.043 20.141-1.45 8.203-4.379 15.672-7.695 23.301-2.395 5.515-5.38 10.781-9.012 15.574l-1.17 1.54c-4.495 5.89-9.086 11.582-14.807 16.358-12.48 10.426-26.589 18.711-42.566 22.52-10.796 2.575-21.544 3.07-32.492 3.1l-222.523.002c-6.707 0-13.582.308-20.254-.461l-1.914-.225c-7.653-.916-15.239-2.08-22.508-4.748-7.551-2.766-15.172-5.989-21.922-10.434-13.457-8.859-25.047-20.285-33.293-34.211C4.375 379.636 0 360.707 0 341.269V103.074c0-26.152 9.832-51.254 27.512-70.5C46.634 11.758 74.618 0 102.782 0h112.891Zm138.399 392.311c-.827.104-1.656.193-2.486.268l-.734.06-.944.171c-.983.172-1.97.324-2.961.458l7.125-.957Zm-261.583 0 7.125.957a79.187 79.187 0 0 1-2.961-.46l-.942-.171-.868-.071a68.943 68.943 0 0 1-2.354-.255Zm273.657-4.199c-.925.381-1.856.744-2.793 1.088l-.179.063-.617.296c-.928.437-1.866.855-2.813 1.256l6.402-2.703Zm-285.731 0 6.402 2.703c-.947-.4-1.885-.82-2.813-1.256l-.618-.296-.179-.064a77.845 77.845 0 0 1-2.792-1.087Zm296.14-7.027c-.546.414-1.097.82-1.653 1.22l-.854.603-.564.479a79.286 79.286 0 0 1-2.35 1.89l5.422-4.192Zm-306.55 0 5.422 4.191a79.322 79.322 0 0 1-2.35-1.89l-.554-.469-.027-.018a78.821 78.821 0 0 1-2.49-1.814Zm315.277-9.957a79.321 79.321 0 0 1-1.89 2.35l-.47.554-.018.027a78.82 78.82 0 0 1-1.814 2.491l4.192-5.422Zm-324.003 0 4.192 5.422a79.496 79.496 0 0 1-1.22-1.653l-.606-.856-.476-.563a79.287 79.287 0 0 1-1.89-2.35Zm329.542-11.39c-.401.948-.82 1.885-1.256 2.814l-.299.622-.061.174a77.845 77.845 0 0 1-1.087 2.792l2.703-6.402Zm-335.08 0 2.698 6.402a78.086 78.086 0 0 1-1.087-2.792l-.079-.217-.277-.58a78.42 78.42 0 0 1-1.256-2.813Zm337.533-12.797a79.187 79.187 0 0 1-.46 2.962l-.173.951-.073.89c-.07.775-.154 1.548-.251 2.322l.957-7.125Zm-339.99 0 .956 7.125a71.746 71.746 0 0 1-.267-2.485l-.061-.735-.17-.943a78.543 78.543 0 0 1-.459-2.962ZM419.76.001c3.589 0 7.032.736 10.184 2.063a26.196 26.196 0 0 1 8.766 5.783 26.166 26.166 0 0 1 5.542 8.186l.22.53a26.208 26.208 0 0 1 2.085 10.235v109.73c0 14.61-12.192 26.797-26.797 26.797-14.61 0-26.797-12.188-26.797-26.797l-.001-45.036-150.335 150.336c-10.221 10.217-27.23 10.32-37.587.307l-.311-.307c-10.324-10.324-10.324-27.574 0-37.898L355.06 53.598h-45.033c-14.463 0-26.553-11.945-26.794-26.359l-.003-.438c0-14.609 12.188-26.797 26.797-26.797h109.404l.329-.003ZM54.24 92.483l-.95 7.068.132-.933c.098-.659.204-1.316.318-1.97l.175-.964.07-.847c.072-.785.155-1.57.254-2.354Zm4.198-12.074-2.686 6.372.394-.913a78.6 78.6 0 0 1 .85-1.87l.275-.578.08-.218c.344-.936.706-1.867 1.087-2.793ZM65.471 70l-4.192 5.423a79.323 79.323 0 0 1 1.89-2.35l.469-.555.019-.026A78.821 78.821 0 0 1 65.47 70Zm9.956-8.725-5.422 4.191a78.972 78.972 0 0 1 1.654-1.22l.859-.609.56-.473a79.287 79.287 0 0 1 2.35-1.89Zm11.39-5.54-6.402 2.7c.925-.381 1.856-.744 2.793-1.088l.206-.075.59-.28a78.68 78.68 0 0 1 2.813-1.256Zm12.797-2.456-7.125.957a86.984 86.984 0 0 1 2.596-.286l.765-.069.803-.144c.983-.171 1.97-.324 2.961-.458Z" fill="currentColor" fill-rule="nonzero"/>
</svg>
