<svg width="373.34px" height="466.664px" viewBox="0 0 373.34 466.664"
    xmlns="http://www.w3.org/2000/svg">
    <path d="M186.666 0a186.645 186.645 0 0 0-131.99 54.674A186.667 186.667 0 0 0 0 186.664c0 155.29 165.67 280 186.67 280s186.67-124.71 186.67-280c0-32.766-8.625-64.957-25.012-93.332A186.655 186.655 0 0 0 186.672 0h-.006Zm0 268.332a81.675 81.675 0 0 1-57.746-23.918 81.673 81.673 0 0 1-23.922-57.75 81.669 81.669 0 0 1 163.336 0 81.671 81.671 0 0 1-81.668 81.668Z" fill="currentColor" fill-rule="nonzero"/>
</svg>
