<svg width="23.433" height="16" viewBox="0 0 23.433 16"
    xmlns="http://www.w3.org/2000/svg">
    <path d="M22.1 0c.378 0 .695.128.95.384.257.256.384.572.383.95 0 .377-.128.694-.384.95a1.285 1.285 0 0 1-.949.383H7.433c-.377 0-.694-.128-.95-.384a1.285 1.285 0 0 1-.383-.95c0-.377.128-.694.384-.95s.573-.384.95-.383H22.1ZM2.233 2.267l4.8 4.8c.267.266.4.577.4.933 0 .356-.133.667-.4.933l-4.8 4.8c-.244.245-.555.367-.933.367s-.689-.122-.933-.367C.122 13.49 0 13.178 0 12.8s.122-.689.367-.933L4.233 8 .367 4.133C.122 3.89 0 3.578 0 3.2s.122-.689.367-.933C.61 2.022.922 1.9 1.3 1.9s.689.122.933.367Zm19.867 4.4c.378 0 .695.128.95.384.257.256.384.572.383.949 0 .378-.128.695-.384.95a1.285 1.285 0 0 1-.949.383H11.433c-.377 0-.694-.128-.95-.384A1.285 1.285 0 0 1 10.1 8c0-.378.128-.695.384-.95.256-.257.573-.384.95-.383H22.1Zm0 6.666c.378 0 .695.128.95.384.257.256.384.573.383.95 0 .377-.128.694-.384.95A1.285 1.285 0 0 1 22.1 16H7.433c-.377 0-.694-.128-.95-.384a1.285 1.285 0 0 1-.383-.95c0-.377.128-.694.384-.95s.573-.384.95-.383H22.1Z" fill="currentColor" fill-rule="nonzero"/>
</svg>
