<svg width="485.23531px" height="382.294px" viewBox="0 0 485.23531 382.294"
    xmlns="http://www.w3.org/2000/svg">
    <path d="M434.415 208.345c.683-5.891 1.132-11.977 1.132-18.316 0-88.099-61.035-120.08-102.07-120.08-68.297 0-93.004 43.862-116.2 97.02-25.793 61.793-44.559 83.698-71.719 83.698-26.344 0-46.207-25.175-46.207-58.57 0-2.96.204-5.875.516-8.769 46.91-4.082 83.855-43.52 83.855-91.465C183.722 41.211 142.519 0 91.855 0 41.21 0 0 41.211 0 91.863c0 33.652 18.238 63.051 45.293 79.051C44.496 177.383 44 184.078 44 191.07c0 68.203 45.289 121.62 103.1 121.62 69.113 0 97.035-54.699 123.92-120.7 18.672-44.812 36.922-63.09 62.973-63.09 17.16 0 46.199 12.77 46.199 60.625 0 2.867-.348 6.383-.93 10.242-43.953 6.82-77.746 44.828-77.746 90.66 0 50.656 41.203 91.867 91.852 91.867 50.664 0 91.867-41.211 91.867-91.867 0-35.898-20.742-66.969-50.828-82.078l.008-.004ZM91.865 41.705c27.668 0 50.176 22.5 50.176 50.163 0 27.665-22.512 50.173-50.176 50.173-27.66 0-50.164-22.508-50.164-50.172 0-27.665 22.504-50.164 50.164-50.164Zm301.52 298.89c-27.652 0-50.164-22.513-50.164-50.173 0-27.663 22.512-50.16 50.164-50.16 27.668 0 50.18 22.497 50.18 50.16 0 27.664-22.504 50.172-50.18 50.172Z" fill="currentColor" fill-rule="nonzero"/>
</svg>
