<svg width="513.34px" height="280px" viewBox="0 0 513.34 280"
    xmlns="http://www.w3.org/2000/svg">
    <g fill="currentColor" fill-rule="nonzero">
        <path d="M326.67 140c0 38.66-31.34 70-70 70s-70-31.34-70-70 31.34-70 70-70 70 31.34 70 70"/>
        <path d="M256.67 0C97.19 0 0 121.21 0 140c0 18.79 97.184 140 256.67 140 159.486 0 256.67-121.21 256.67-140 0-18.79-97.184-140-256.67-140Zm0 233.33a93.329 93.329 0 0 1-93.332-93.332 93.329 93.329 0 0 1 93.332-93.332 93.329 93.329 0 0 1 93.332 93.332 93.329 93.329 0 0 1-93.332 93.332Z"/>
    </g>
</svg>
