<svg width="22" height="24"
    xmlns="http://www.w3.org/2000/svg">
    <path d="M16.51 17.16a2.489 2.489 0 0 0-1.71-1.068 2.522 2.522 0 0 0-1.928.502l-.09.079c-.4.32-.95.381-1.412.155a8.9 8.9 0 0 1-5.135-8.954c.045-.499.367-.93.833-1.113l.115-.045A2.509 2.509 0 0 0 8.51 3.301l-.672-1.406a2.589 2.589 0 0 0-4.093-.815l-1.55 1.423A5 5 0 0 0 .81 5.688a17.914 17.914 0 0 0 9.784 16.946c.304.155.623.277.952.364a5.012 5.012 0 0 0 2.54 0l1.963-.6a2.588 2.588 0 0 0 1.333-3.927l-.873-1.312ZM12.854.63a.662.662 0 0 1 .55-.185l.1.021a11.25 11.25 0 0 1 7.958 13.784.662.662 0 1 1-1.279-.343c1.42-5.297-1.724-10.743-7.022-12.162A.662.662 0 0 1 12.855.63Zm-.036 2.395a8.607 8.607 0 0 1 6.086 10.541.662.662 0 0 1-1.278-.343 7.282 7.282 0 0 0-5.15-8.92.662.662 0 0 1 .342-1.278Zm-.686 2.557a5.959 5.959 0 0 1 4.213 7.298.662.662 0 1 1-1.278-.343 4.634 4.634 0 0 0-3.277-5.676.662.662 0 0 1 .342-1.279Z" fill="currentColor" />
</svg>
