<svg id="Group_10442" data-name="Group 10442" xmlns="http://www.w3.org/2000/svg" width="47.267" height="47.267" viewBox="0 0 47.267 47.267">
  <path id="Path_40" data-name="Path 40" d="M1206.273,7625.119c.008.18.012.36.012.542a11.886,11.886,0,0,1-18.3,10.014,8.45,8.45,0,0,0,6.189-1.731,4.181,4.181,0,0,1-3.9-2.9,4.248,4.248,0,0,0,.786.075,4.2,4.2,0,0,0,1.1-.147,4.183,4.183,0,0,1-3.353-4.1c0-.017,0-.035,0-.053a4.159,4.159,0,0,0,1.893.523,4.183,4.183,0,0,1-1.293-5.581,11.864,11.864,0,0,0,8.615,4.368,4.183,4.183,0,0,1,7.123-3.813,8.344,8.344,0,0,0,2.655-1.014,4.191,4.191,0,0,1-1.838,2.313,8.321,8.321,0,0,0,2.4-.659A8.488,8.488,0,0,1,1206.273,7625.119Z" transform="translate(-1173.267 -7604.606)" fill="#fff"/>
  <g id="Ellipse_9031" data-name="Ellipse 9031" transform="translate(0)" fill="none" stroke="#fff" stroke-width="1">
    <circle cx="23.634" cy="23.634" r="23.634" stroke="none"/>
    <circle cx="23.634" cy="23.634" r="23.134" fill="none"/>
  </g>
</svg>
