<svg id="Group_10444" data-name="Group 10444" xmlns="http://www.w3.org/2000/svg" width="47.267" height="47.267" viewBox="0 0 47.267 47.267">
  <path id="Path_42" data-name="Path 42" d="M1351.524,7624.926a3.05,3.05,0,0,0-2.146-2.16c-1.893-.51-9.482-.51-9.482-.51s-7.59,0-9.482.51a3.051,3.051,0,0,0-2.146,2.16,34.336,34.336,0,0,0,0,11.76,3.05,3.05,0,0,0,2.146,2.159c1.892.511,9.482.511,9.482.511s7.59,0,9.482-.511a3.049,3.049,0,0,0,2.146-2.159,34.344,34.344,0,0,0,0-11.76Zm-14.11,9.488V7627.2l6.344,3.609Z" transform="translate(-1316.351 -7607.648)" fill="#fff"/>
  <g id="Ellipse_9033" data-name="Ellipse 9033" transform="translate(0)" fill="none" stroke="#fff" stroke-width="1">
    <circle cx="23.634" cy="23.634" r="23.634" stroke="none"/>
    <circle cx="23.634" cy="23.634" r="23.134" fill="none"/>
  </g>
</svg>
