<?xml version="1.0" encoding="utf-8"?>
<!-- Generator: Adobe Illustrator 23.0.3, SVG Export Plug-In . SVG Version: 6.00 Build 0)  -->
<svg version="1.1" id="Layer_1" xmlns="http://www.w3.org/2000/svg" xmlns:xlink="http://www.w3.org/1999/xlink" x="0px" y="0px"
	 viewBox="0 0 192 63.898" style="enable-background:new 0 0 192 63.898;" xml:space="preserve">
<style type="text/css">
	.st0{fill-rule:evenodd;clip-rule:evenodd;fill:#F07AD0;}
	.st1{fill-rule:evenodd;clip-rule:evenodd;fill:#AA1D82;}
	.st2{fill-rule:evenodd;clip-rule:evenodd;fill:#E024AB;}
	.st3{fill-rule:evenodd;clip-rule:evenodd;fill:#1F9DE0;}
	.st4{fill-rule:evenodd;clip-rule:evenodd;fill:#9FDEFF;}
	.st5{fill-rule:evenodd;clip-rule:evenodd;fill:#60C8FF;}
	.st6{enable-background:new    ;}
	.st7{fill:#003861;}
</style>
<g id="Group_92" transform="translate(-71 -49)">
	<g id="arcada_logo" transform="translate(70.982 48.98)">
		<path id="Path_169" class="st0" d="M25.935,54.153c8.97-5.539,18.171,0.523,24.973,4.649c3.541,2.298,7.461,3.948,11.579,4.874
			c7.358,1.42,15.697-3.507,13.458-11.743c-0.798-2.677-2.273-5.102-4.283-7.041l0.09,0.127c-3.35-2.461-7.284-4.007-11.414-4.485
			c-5.613-0.563-11.276,0.328-16.445,2.586C37.4,45.718,31.39,49.39,26.114,53.981L25.935,54.153z"/>
		<path id="Path_170" class="st1" d="M44.45,42.889c2.828-0.507,5.736-0.346,8.491,0.471c4.136,1.312,7.866,3.664,10.831,6.832
			c3.241,3.554,6.063,7.469,8.409,11.668c3.405-2.043,4.968-6.152,3.782-9.942c-0.423-1.517-1.084-2.958-1.958-4.268
			c-2.99-4.425-8.222-6.466-13.649-7.131C54.939,39.973,49.472,40.787,44.45,42.889z"/>
		<path id="Path_171" class="st2" d="M63.959,63.87c4.35,0.351,8.775-1.405,10.966-4.649c-2.886-4.489-7.251-9.314-11.313-11.889
			c-3.461-2.2-10.069-4.747-14.352-5.046c-1.424-0.088-2.853,0.041-4.238,0.381l-1.1,0.441c-1.869,0.747-3.737,1.637-5.584,2.586
			l-1.946,1.208c3.12-0.718,6.372-0.617,9.441,0.292c4.134,1.315,7.863,3.667,10.831,6.832c2.78,3.009,5.228,6.31,7.3,9.844H63.959z
			"/>
		<path id="Path_172" class="st3" d="M70.186,40.668l-0.12-0.172v-0.06c-2.812-4.076-6.857-7.141-11.541-8.746
			c-5.535-1.762-11.418-2.136-17.132-1.091c-7.049,1.129-14.314,1.495-20.862,4.1c-5.143,1.009-9.717,4.679-14.2,7.475
			c-0.831,1.183-3.815,5.214-4.615,6.418c-2.997,4.317-1.927,10.246,2.39,13.242c0.067,0.047,0.135,0.093,0.204,0.138l0,0
			c3.476,2.242,8.02,2.347,11.093-0.448l9.067-8.222c5.54-4.831,11.858-8.689,18.687-11.408c5.425-2.363,11.364-3.297,17.252-2.713
			c4.329,0.517,8.449,2.147,11.96,4.732l-2.242-3.192L70.186,40.668z"/>
		<path id="Path_173" class="st4" d="M21.876,19.694c1.2-0.3,4.35-1.181,5.554-1.42c1.772-0.351,4.485-1.046,6.316-1.218
			c5.748-0.553,11.646,1.024,17.244,3.4c2.96,1.424,5.819,3.047,8.559,4.859L43.852,2.674c-0.574-0.833-1.344-1.514-2.242-1.981
			c-1.803-0.897-3.923-0.897-5.726,0c-0.898,0.467-1.668,1.148-2.242,1.981L21.876,19.694z"/>
		<path id="Path_174" class="st5" d="M59.362,25.038c-2.417-2.988-5.541-5.325-9.089-6.8c-5.412-2.109-11.26-2.854-17.028-2.168
			c-1.734,0.164-3.483,0.434-5.232,0.747s-3.319,0.747-4.963,1.159L4.654,44.48c17.3-14.329,46.023-18.612,65.068-4.485
			L59.362,25.038z"/>
	</g>
	<g class="st6">
		<path class="st7" d="M178.235,80l-1.1-2.553h-8.098L167.96,80h-3.586l7.15-17.404h3.411L182.042,80H178.235z M173.065,67.26
			l-2.86,7.13h5.786L173.065,67.26z"/>
		<path class="st7" d="M193.239,72.849c0-0.132,0-1.1-0.044-1.386c-0.176-1.188-1.034-1.805-2.553-1.805
			c-1.826,0-3.234,1.078-3.234,2.663V80h-3.3V66.776h3.3v1.364c0.946-0.946,2.442-1.585,4.225-1.585
			c3.059,0,4.907,1.475,5.039,4.027c0.022,0.616,0.022,2.134,0.022,2.266H193.239z"/>
		<path class="st7" d="M208.903,71.991c0-0.133,0-0.396-0.066-0.595c-0.396-1.122-1.519-1.738-3.433-1.738
			c-1.826,0-3.234,0.748-3.498,2.091c-0.11,0.55-0.176,1.056-0.176,1.628c0,0.396,0.065,1.21,0.153,1.562
			c0.353,1.562,1.519,2.222,3.521,2.222c2.003,0,2.971-0.55,3.322-1.628c0.045-0.132,0.11-0.418,0.11-0.594h3.41
			c-0.021,0.176-0.044,0.66-0.065,0.88c-0.309,2.398-2.267,4.4-6.711,4.4c-4.312,0-6.667-1.958-6.976-4.973
			c-0.065-0.616-0.109-1.1-0.109-1.848s0.065-1.452,0.109-1.826c0.353-3.059,2.993-5.018,6.976-5.018
			c4.202,0,6.425,2.003,6.776,4.599c0.022,0.286,0.045,0.683,0.045,0.837H208.903z"/>
		<path class="st7" d="M224.479,80c0,0-0.198-0.66-0.198-1.232c-0.836,0.771-2.442,1.343-4.907,1.343
			c-3.806,0-5.28-1.364-5.347-3.477c-0.021-0.198-0.021-0.507-0.021-0.727c0.044-3.586,5.215-4.181,10.188-4.225
			c-0.088-1.518-1.145-2.134-3.146-2.134c-1.87,0-2.772,0.55-3.037,1.782h-3.256c0.33-3.234,2.838-4.775,6.513-4.775
			c3.366,0,5.501,1.167,5.985,3.564c0.132,0.704,0.109,2.179,0.109,3.19c0,0.595-0.044,2.333-0.021,3.565
			c0.021,1.254,0.065,2.838,0.506,3.124H224.479z M217.725,75.094c-0.33,0.22-0.463,0.483-0.463,0.813
			c0,0.242,0.044,0.462,0.221,0.704c0.374,0.528,1.452,0.771,2.662,0.771c1.101,0,2.486-0.462,2.883-0.771
			c0.682-0.506,1.1-1.034,1.188-1.672c0.022-0.242,0.044-0.572,0.044-0.748C221.751,74.213,218.67,74.499,217.725,75.094z"/>
		<path class="st7" d="M241.331,80l-0.132-1.166c-1.166,1.034-3.169,1.342-4.533,1.342c-3.916,0-5.919-1.606-6.205-4.225
			c-0.065-0.66-0.109-1.738-0.109-2.376c0-0.639,0.132-2.047,0.176-2.442c0.264-2.332,2.223-4.533,6.029-4.533
			c2.376,0,3.718,0.704,4.466,1.387v-5.522h3.301v15.578c0,0.792,0.022,1.848,0.198,1.958H241.331z M241.089,71.661
			c-0.242-1.167-1.408-2.024-3.763-2.024c-2.288,0-3.322,0.88-3.521,2.156c-0.065,0.396-0.132,1.254-0.132,1.562
			c0,0.352,0.044,1.231,0.11,1.693c0.22,1.541,1.144,2.091,3.718,2.091c2.311,0,3.455-0.968,3.609-2.112
			c0.021-0.286,0.088-0.99,0.088-1.717C241.199,72.717,241.177,72.123,241.089,71.661z"/>
		<path class="st7" d="M257.831,80c0,0-0.198-0.66-0.198-1.232c-0.836,0.771-2.442,1.343-4.907,1.343
			c-3.806,0-5.28-1.364-5.347-3.477c-0.021-0.198-0.021-0.507-0.021-0.727c0.044-3.586,5.215-4.181,10.188-4.225
			c-0.088-1.518-1.145-2.134-3.146-2.134c-1.87,0-2.772,0.55-3.037,1.782h-3.256c0.33-3.234,2.838-4.775,6.513-4.775
			c3.366,0,5.501,1.167,5.985,3.564c0.132,0.704,0.109,2.179,0.109,3.19c0,0.595-0.044,2.333-0.021,3.565
			c0.021,1.254,0.065,2.838,0.506,3.124H257.831z M251.076,75.094c-0.33,0.22-0.463,0.483-0.463,0.813
			c0,0.242,0.044,0.462,0.221,0.704c0.374,0.528,1.452,0.771,2.662,0.771c1.101,0,2.486-0.462,2.883-0.771
			c0.682-0.506,1.1-1.034,1.188-1.672c0.022-0.242,0.044-0.572,0.044-0.748C255.103,74.213,252.021,74.499,251.076,75.094z"/>
	</g>
	<g class="st6">
		<path class="st7" d="M166.41,98v-8.702h1.728v7.074h4.609V98H166.41z"/>
		<path class="st7" d="M181.977,98l-0.551-1.276h-4.048L176.839,98h-1.794l3.576-8.702h1.705L183.88,98H181.977z M179.391,91.63
			l-1.43,3.564h2.894L179.391,91.63z"/>
		<path class="st7" d="M194.428,96.107c-0.065,1.32-1.198,1.893-2.596,1.893h-5.017v-8.702h4.796c1.562,0,2.245,0.715,2.3,1.672
			c0.011,0.165,0.033,0.407,0.033,0.649c0,0.231-0.022,0.451-0.033,0.594c-0.022,0.627-0.407,1.046-0.913,1.155
			c0.858,0.165,1.354,0.639,1.43,1.419c0.012,0.133,0.022,0.374,0.022,0.628C194.45,95.689,194.439,95.976,194.428,96.107z
			 M192.173,91.377c-0.132-0.33-0.352-0.495-0.957-0.495h-2.718v1.97h2.718c0.594,0,0.847-0.144,0.957-0.484
			c0.022-0.088,0.055-0.33,0.055-0.484C192.228,91.707,192.217,91.487,192.173,91.377z M192.635,94.864
			c-0.109-0.374-0.352-0.583-1.023-0.583h-3.113v2.123h3.113c0.704,0,0.958-0.241,1.034-0.604c0.022-0.121,0.033-0.297,0.033-0.474
			C192.679,95.161,192.668,94.985,192.635,94.864z"/>
		<path class="st7" d="M201.347,98.121c-2.707,0-3.861-0.902-4.093-2.96h1.705c0.176,0.979,0.781,1.408,2.618,1.408
			c1.431,0,1.859-0.297,1.859-0.957c0-0.736-0.439-1.022-2.541-1.287c-2.607-0.33-3.399-1.298-3.399-2.827
			c0-1.354,1.067-2.332,3.619-2.332c2.432,0,3.631,0.913,3.796,2.894h-1.728c-0.165-0.969-0.638-1.354-2.156-1.354
			c-1.364,0-1.815,0.352-1.815,0.891c0,0.507,0.363,0.99,2.344,1.243c2.806,0.363,3.619,1.123,3.619,2.674
			C205.175,97.241,203.877,98.121,201.347,98.121z"/>
	</g>
</g>
</svg>
