<?xml version="1.0" encoding="utf-8"?>
<!-- Generator: Adobe Illustrator 24.0.0, SVG Export Plug-In . SVG Version: 6.00 Build 0)  -->
<svg version="1.2" baseProfile="tiny" id="Layer_1" xmlns="http://www.w3.org/2000/svg" xmlns:xlink="http://www.w3.org/1999/xlink"
	 x="0px" y="0px" viewBox="0 0 192 63.898" xml:space="preserve">
<g>
	<path fill="#FFFFFF" d="M107.235,31l-1.1-2.553h-8.098L96.96,31h-3.586l7.15-17.404h3.411L111.042,31H107.235z M102.065,18.26
		l-2.86,7.13h5.786L102.065,18.26z"/>
	<path fill="#FFFFFF" d="M122.239,23.849c0-0.132,0-1.1-0.044-1.386c-0.176-1.188-1.034-1.805-2.553-1.805
		c-1.826,0-3.234,1.078-3.234,2.663V31h-3.3V17.776h3.3v1.364c0.946-0.946,2.442-1.585,4.225-1.585c3.059,0,4.907,1.475,5.039,4.027
		c0.022,0.616,0.022,2.134,0.022,2.266L122.239,23.849L122.239,23.849z"/>
	<path fill="#FFFFFF" d="M137.903,22.991c0-0.133,0-0.396-0.066-0.595c-0.396-1.122-1.519-1.738-3.433-1.738
		c-1.826,0-3.234,0.748-3.498,2.091c-0.11,0.55-0.176,1.056-0.176,1.628c0,0.396,0.065,1.21,0.153,1.562
		c0.353,1.562,1.519,2.222,3.521,2.222c2.003,0,2.971-0.55,3.322-1.628c0.045-0.132,0.11-0.418,0.11-0.594h3.41
		c-0.021,0.176-0.044,0.66-0.065,0.88c-0.309,2.398-2.267,4.4-6.711,4.4c-4.312,0-6.667-1.958-6.976-4.973
		c-0.065-0.616-0.109-1.1-0.109-1.848s0.065-1.452,0.109-1.826c0.353-3.059,2.993-5.018,6.976-5.018
		c4.202,0,6.425,2.003,6.776,4.599c0.022,0.286,0.045,0.683,0.045,0.837L137.903,22.991L137.903,22.991z"/>
	<path fill="#FFFFFF" d="M153.479,31c0,0-0.198-0.66-0.198-1.232c-0.836,0.771-2.442,1.343-4.907,1.343
		c-3.806,0-5.28-1.364-5.347-3.477c-0.021-0.198-0.021-0.507-0.021-0.727c0.044-3.586,5.215-4.181,10.188-4.225
		c-0.088-1.518-1.145-2.134-3.146-2.134c-1.87,0-2.772,0.55-3.037,1.782h-3.256c0.33-3.234,2.838-4.775,6.513-4.775
		c3.366,0,5.501,1.167,5.985,3.564c0.132,0.704,0.109,2.179,0.109,3.19c0,0.595-0.044,2.333-0.021,3.565
		c0.021,1.254,0.065,2.838,0.506,3.124h-3.368V31z M146.725,26.094c-0.33,0.22-0.463,0.483-0.463,0.813
		c0,0.242,0.044,0.462,0.221,0.704c0.374,0.528,1.452,0.771,2.662,0.771c1.101,0,2.486-0.462,2.883-0.771
		c0.682-0.506,1.1-1.034,1.188-1.672c0.022-0.242,0.044-0.572,0.044-0.748C150.751,25.213,147.67,25.499,146.725,26.094z"/>
	<path fill="#FFFFFF" d="M170.331,31l-0.132-1.166c-1.166,1.034-3.169,1.342-4.533,1.342c-3.916,0-5.919-1.606-6.205-4.225
		c-0.065-0.66-0.109-1.738-0.109-2.376c0-0.639,0.132-2.047,0.176-2.442c0.264-2.332,2.223-4.533,6.029-4.533
		c2.376,0,3.718,0.704,4.466,1.387v-5.522h3.301v15.578c0,0.792,0.022,1.848,0.198,1.958h-3.191V31z M170.089,22.661
		c-0.242-1.167-1.408-2.024-3.763-2.024c-2.288,0-3.322,0.88-3.521,2.156c-0.065,0.396-0.132,1.254-0.132,1.562
		c0,0.352,0.044,1.231,0.11,1.693c0.22,1.541,1.144,2.091,3.718,2.091c2.311,0,3.455-0.968,3.609-2.112
		c0.021-0.286,0.088-0.99,0.088-1.717C170.199,23.717,170.177,23.123,170.089,22.661z"/>
	<path fill="#FFFFFF" d="M186.831,31c0,0-0.198-0.66-0.198-1.232c-0.836,0.771-2.442,1.343-4.907,1.343
		c-3.806,0-5.28-1.364-5.347-3.477c-0.021-0.198-0.021-0.507-0.021-0.727c0.044-3.586,5.215-4.181,10.188-4.225
		c-0.088-1.518-1.145-2.134-3.146-2.134c-1.87,0-2.772,0.55-3.037,1.782h-3.256c0.33-3.234,2.838-4.775,6.513-4.775
		c3.366,0,5.501,1.167,5.985,3.564c0.132,0.704,0.109,2.179,0.109,3.19c0,0.595-0.044,2.333-0.021,3.565
		c0.021,1.254,0.065,2.838,0.506,3.124h-3.368V31z M180.076,26.094c-0.33,0.22-0.463,0.483-0.463,0.813
		c0,0.242,0.044,0.462,0.221,0.704c0.374,0.528,1.452,0.771,2.662,0.771c1.101,0,2.486-0.462,2.883-0.771
		c0.682-0.506,1.1-1.034,1.188-1.672c0.022-0.242,0.044-0.572,0.044-0.748C184.103,25.213,181.021,25.499,180.076,26.094z"/>
</g>
<g>
	<path fill="#FFFFFF" d="M95.41,49v-8.702h1.728v7.074h4.609V49H95.41z"/>
	<path fill="#FFFFFF" d="M110.977,49l-0.551-1.276h-4.048L105.839,49h-1.794l3.576-8.702h1.705L112.88,49H110.977z M108.391,42.63
		l-1.43,3.564h2.894L108.391,42.63z"/>
	<path fill="#FFFFFF" d="M123.428,47.107c-0.065,1.32-1.198,1.893-2.596,1.893h-5.017v-8.702h4.796c1.562,0,2.245,0.715,2.3,1.672
		c0.011,0.165,0.033,0.407,0.033,0.649c0,0.231-0.022,0.451-0.033,0.594c-0.022,0.627-0.407,1.046-0.913,1.155
		c0.858,0.165,1.354,0.639,1.43,1.419c0.012,0.133,0.022,0.374,0.022,0.628C123.45,46.689,123.439,46.976,123.428,47.107z
		 M121.173,42.377c-0.132-0.33-0.352-0.495-0.957-0.495h-2.718v1.97h2.718c0.594,0,0.847-0.144,0.957-0.484
		c0.022-0.088,0.055-0.33,0.055-0.484C121.228,42.707,121.217,42.487,121.173,42.377z M121.635,45.864
		c-0.109-0.374-0.352-0.583-1.023-0.583h-3.113v2.123h3.113c0.704,0,0.958-0.241,1.034-0.604c0.022-0.121,0.033-0.297,0.033-0.474
		C121.679,46.161,121.668,45.985,121.635,45.864z"/>
	<path fill="#FFFFFF" d="M130.347,49.121c-2.707,0-3.861-0.902-4.093-2.96h1.705c0.176,0.979,0.781,1.408,2.618,1.408
		c1.431,0,1.859-0.297,1.859-0.957c0-0.736-0.439-1.022-2.541-1.287c-2.607-0.33-3.399-1.298-3.399-2.827
		c0-1.354,1.067-2.332,3.619-2.332c2.432,0,3.631,0.913,3.796,2.894h-1.728c-0.165-0.969-0.638-1.354-2.156-1.354
		c-1.364,0-1.815,0.352-1.815,0.891c0,0.507,0.363,0.99,2.344,1.243c2.806,0.363,3.619,1.123,3.619,2.674
		C134.175,48.241,132.877,49.121,130.347,49.121z"/>
</g>
<g>
	<path fill-rule="evenodd" fill="#FFFFFF" d="M25.961,54.121c8.918-5.53,18.149,0.524,24.939,4.646
		c3.455,2.098,7.134,3.92,11.108,4.767c-0.842-1.333-1.724-2.666-2.668-3.971c-1.169-1.616-2.412-3.154-3.753-4.535
		c-1.456-1.498-3.11-2.885-4.925-4.03c-1.628-1.027-3.386-1.86-5.242-2.403c-1.393-0.407-2.844-0.654-4.337-0.7
		c-6.198-0.189-10.427,1.952-14.914,6.036L25.961,54.121L25.961,54.121z M75.687,57.698c-1.472-2.186-3.266-4.434-5.184-6.451
		c-1.967-2.068-4.075-3.905-6.12-5.203c-3.613-2.294-8.87-4.632-13.565-5.092c3.104-0.633,6.325-0.844,9.522-0.452
		c6.93,0.85,13.642,4.216,15.589,11.402C76.522,54.087,76.369,56.038,75.687,57.698z"/>
	<path fill-rule="evenodd" fill="#FFFFFF" d="M63.938,63.827c4.344,0.347,8.764-1.403,10.952-4.645
		c-2.877-4.446-7.238-9.302-11.302-11.882c-9.975-6.334-17.337-6.57-27.182-0.418c3.335-0.765,6.506-0.564,9.429,0.29
		c4.209,1.231,7.899,3.819,10.818,6.822C59.458,56.883,61.795,60.354,63.938,63.827z"/>
	<path fill-rule="evenodd" fill="#FFFFFF" d="M0.251,55.754c0.506,2.611,1.889,4.675,4.11,6.136
		c0.008,0.006,0.018,0.012,0.025,0.017c3.466,2.28,8.008,2.348,11.076-0.445l9.059-8.245c5.275-4.801,11.979-8.626,18.64-11.389
		c5.277-2.189,11.296-3.44,17.233-2.712c4.123,0.506,8.204,1.965,11.969,4.723l-0.015-0.021l-3.536-2.627
		c-8.825-6.554-19.83-9.009-30.751-8.26c-10.907,0.748-21.632,4.564-30.179,10.93C4.87,46.106-0.824,50.208,0.251,55.754z"/>
	<path fill-rule="evenodd" fill="#FFFFFF" d="M55.438,19.398L43.878,2.707c-0.6-0.865-1.349-1.534-2.208-1.984
		c-0.858-0.45-1.835-0.685-2.891-0.685c-1.056,0-2.033,0.235-2.891,0.685c-0.859,0.45-1.609,1.119-2.208,1.984L24.37,16.15
		c0.284-0.07,0.566-0.138,0.843-0.203c0.853-0.2,1.701-0.384,2.538-0.549c0.901-0.177,1.797-0.335,2.683-0.468
		c0.848-0.127,1.743-0.238,2.686-0.328c3.047-0.292,6.252-0.305,9.427,0.1c2.832,0.361,5.641,1.056,8.295,2.181
		C52.447,17.564,53.988,18.396,55.438,19.398z"/>
	<path fill-rule="evenodd" fill="#FFFFFF" d="M50.267,18.25c-5.38-2.281-11.448-2.703-17.007-2.171
		c-3.435,0.329-6.849,1.049-10.181,1.936L4.708,44.456C21.983,30.15,50.671,25.868,69.697,40
		C65.074,32.114,59.194,22.034,50.267,18.25z"/>
</g>
</svg>
