<!-- Generated by IcoMoon.io -->
<svg version="1.1" xmlns="http://www.w3.org/2000/svg" width="23" height="22" viewBox="0 0 75 75">
<path d="M63.649 10.547h-52.406c-4.072 0-7.395 3.322-7.395 7.288v46.619l10.181-9.967h49.727c4.072 0 7.395-3.322 7.395-7.288v-29.364c-0.107-3.965-3.429-7.288-7.502-7.288z" fill="#242748"></path>
<path d="M54.004 27.48c5.573 0 8.145 4.394 8.145 8.574 0 1.072-0.858 1.929-1.929 1.929h-10.288c0.536 2.465 2.251 3.858 5.037 3.858 2.036 0 3.108-0.429 4.179-0.965 0.214-0.107 0.536-0.214 0.75-0.214 0.964 0 1.822 0.75 1.822 1.715 0 0.643-0.429 1.179-1.072 1.608-1.393 0.75-2.893 1.5-5.894 1.5-5.573 0-8.895-3.322-8.895-9.002-0.107-6.537 4.394-9.002 8.145-9.002zM37.607 24.693c0.643 0 1.072 0.536 1.072 1.072v2.036h3.108c0.964 0 1.822 0.75 1.822 1.715s-0.75 1.715-1.822 1.715h-3.108v9.324c0 1.286 0.643 1.393 1.608 1.393 0.536 0 0.858-0.107 1.179-0.107 0.214 0 0.536-0.107 0.75-0.107 0.75 0 1.715 0.643 1.715 1.608 0 0.643-0.428 1.179-1.072 1.5-0.964 0.429-1.822 0.643-2.893 0.643-3.43 0-5.252-1.608-5.252-4.716v-9.431h-1.822c-0.643 0-1.072-0.536-1.072-1.072 0-0.322 0.107-0.643 0.429-0.965l4.287-4.287c0.214 0 0.536-0.322 1.072-0.322zM17.566 20.621c1.072 0 1.929 0.857 1.929 1.929v20.791c0 1.072-0.857 1.929-1.929 1.929s-1.929-0.857-1.929-1.929v-20.791c0-1.072 0.857-1.929 1.929-1.929zM26.783 27.694c1.072 0 1.929 0.857 1.929 1.929v13.718c0 1.072-0.857 1.929-1.929 1.929s-1.929-0.857-1.929-1.929v-13.718c0-1.072 0.857-1.929 1.929-1.929zM54.111 31.016c-1.822 0-3.858 1.072-4.18 3.751h8.467c-0.536-2.679-2.465-3.751-4.287-3.751zM26.89 21.157c1.179 0 2.143 0.965 2.143 2.143v0.107c0 1.179-0.965 2.143-2.143 2.143h-0.214c-1.179 0-2.143-0.965-2.143-2.143v-0.107c0-1.179 0.965-2.143 2.143-2.143h0.214z" fill="white"></path>
</svg>
